<?xml version="1.0" encoding="UTF-8" standalone="no"?>
<svg
   version="1.1"
   viewBox="0 0 929.31317 199.39906"
   fill="none"
   stroke="none"
   stroke-linecap="square"
   stroke-miterlimit="10"
   id="svg82"
   sodipodi:docname="SD.svg"
   width="929.31317"
   height="199.39906"
   inkscape:version="1.3 (1:1.3+202307231459+0e150ed6c4)"
   xmlns:inkscape="http://www.inkscape.org/namespaces/inkscape"
   xmlns:sodipodi="http://sodipodi.sourceforge.net/DTD/sodipodi-0.dtd"
   xmlns="http://www.w3.org/2000/svg"
   xmlns:svg="http://www.w3.org/2000/svg">
  <defs
     id="defs82" />
  <sodipodi:namedview
     id="namedview82"
     pagecolor="#ffffff"
     bordercolor="#000000"
     borderopacity="0.25"
     inkscape:showpageshadow="2"
     inkscape:pageopacity="0.0"
     inkscape:pagecheckerboard="0"
     inkscape:deskcolor="#d1d1d1"
     inkscape:zoom="2.1777778"
     inkscape:cx="472.72959"
     inkscape:cy="196.07143"
     inkscape:window-width="5048"
     inkscape:window-height="1376"
     inkscape:window-x="72"
     inkscape:window-y="27"
     inkscape:window-maximized="1"
     inkscape:current-layer="g82" />
  <clipPath
     id="g29c124ccf7e_0_0.0">
    <path
       d="M 0,0 H 960 V 540 H 0 Z"
       clip-rule="nonzero"
       id="path1" />
  </clipPath>
  <g
     clip-path="url(#g29c124ccf7e_0_0.0)"
     id="g82"
     transform="translate(-7.5406823,-73.71654)">
    <path
       fill="#3d85c6"
       d="m 179.85344,143.24672 h 176.7559 v 16.75591 h -176.7559 z"
       fill-rule="evenodd"
       id="path3" />
    <path
       stroke="#595959"
       stroke-width="1"
       stroke-linejoin="round"
       stroke-linecap="butt"
       d="m 179.85344,143.24672 h 176.7559 v 16.75591 h -176.7559 z"
       fill-rule="evenodd"
       id="path4" />
    <path
       fill="#93c47d"
       d="m 397.02667,143.24672 h 34.96063 v 16.75591 h -34.96063 z"
       fill-rule="evenodd"
       id="path5" />
    <path
       stroke="#595959"
       stroke-width="1"
       stroke-linejoin="round"
       stroke-linecap="butt"
       d="m 397.02667,143.24672 h 34.96063 v 16.75591 h -34.96063 z"
       fill-rule="evenodd"
       id="path6" />
    <path
       fill="#e06666"
       d="m 431.9873,143.24672 h 54.4567 v 16.75591 h -54.4567 z"
       fill-rule="evenodd"
       id="path7" />
    <path
       stroke="#595959"
       stroke-width="1"
       stroke-linejoin="round"
       stroke-linecap="butt"
       d="m 431.9873,143.24672 h 54.4567 v 16.75591 h -54.4567 z"
       fill-rule="evenodd"
       id="path8" />
    <path
       fill="#e06666"
       d="m 699.0162,139.05774 h 41.03937 v 16.7559 H 699.0162 Z"
       fill-rule="evenodd"
       id="path9" />
    <path
       stroke="#595959"
       stroke-width="1"
       stroke-linejoin="round"
       stroke-linecap="butt"
       d="m 699.0162,139.05774 h 41.03937 v 16.7559 H 699.0162 Z"
       fill-rule="evenodd"
       id="path10" />
    <path
       fill="#3d85c6"
       d="m 218.96631,190.2441 h 75.40158 V 207 h -75.40158 z"
       fill-rule="evenodd"
       id="path11" />
    <path
       stroke="#595959"
       stroke-width="1"
       stroke-linejoin="round"
       stroke-linecap="butt"
       d="m 218.96631,190.2441 h 75.40158 V 207 h -75.40158 z"
       fill-rule="evenodd"
       id="path12" />
    <path
       fill="#3d85c6"
       d="m 486.444,143.24672 h 54.4567 v 16.75591 H 486.444 Z"
       fill-rule="evenodd"
       id="path13" />
    <path
       stroke="#595959"
       stroke-width="1"
       stroke-linejoin="round"
       stroke-linecap="butt"
       d="m 486.444,143.24672 h 54.4567 v 16.75591 H 486.444 Z"
       fill-rule="evenodd"
       id="path14" />
    <path
       fill="#000000"
       fill-opacity="0"
       d="M 179.01617,73.71654 V 205.2441"
       fill-rule="evenodd"
       id="path15" />
    <path
       stroke="#595959"
       stroke-width="1"
       stroke-linejoin="round"
       stroke-linecap="butt"
       stroke-dasharray="8, 3, 1, 3"
       d="M 179.01617,73.71654 V 205.2441"
       fill-rule="evenodd"
       id="path16" />
    <path
       fill="#000000"
       fill-opacity="0"
       d="M 219.01617,73.71654 V 205.2441"
       fill-rule="evenodd"
       id="path17" />
    <path
       stroke="#595959"
       stroke-width="1"
       stroke-linejoin="round"
       stroke-linecap="butt"
       stroke-dasharray="8, 3, 1, 3"
       d="M 219.01617,73.71654 V 205.2441"
       fill-rule="evenodd"
       id="path18" />
    <path
       fill="#000000"
       fill-opacity="0"
       d="M 294.36746,73.71654 V 205.2441"
       fill-rule="evenodd"
       id="path19" />
    <path
       stroke="#595959"
       stroke-width="1"
       stroke-linejoin="round"
       stroke-linecap="butt"
       stroke-dasharray="8, 3, 1, 3"
       d="M 294.36746,73.71654 V 205.2441"
       fill-rule="evenodd"
       id="path20" />
    <path
       fill="#000000"
       fill-opacity="0"
       d="M 356.23132,73.71654 V 205.2441"
       fill-rule="evenodd"
       id="path21" />
    <path
       stroke="#595959"
       stroke-width="1"
       stroke-linejoin="round"
       stroke-linecap="butt"
       stroke-dasharray="8, 3, 1, 3"
       d="M 356.23132,73.71654 V 205.2441"
       fill-rule="evenodd"
       id="path22" />
    <path
       fill="#000000"
       fill-opacity="0"
       d="m 220.06342,203.72966 v 0 c 0,2.64381 -1.05025,5.17934 -2.91971,7.0488 -1.86946,1.86946 -4.40498,2.91971 -7.0488,2.91971 h -0.58267 v 0 c -5.50545,0 -9.9685,4.46304 -9.9685,9.9685 v 0 c 0,-5.50546 -4.46305,-9.9685 -9.96851,-9.9685 h -0.58267 v 0 c -5.50545,0 -9.96851,-4.46306 -9.96851,-9.96851 z"
       fill-rule="evenodd"
       id="path23" />
    <path
       fill="#000000"
       fill-opacity="0"
       d="m 220.06342,203.72966 v 0 c 0,2.64381 -1.05025,5.17934 -2.91971,7.0488 -1.86946,1.86946 -4.40498,2.91971 -7.0488,2.91971 h -0.58267 v 0 c -5.50545,0 -9.9685,4.46304 -9.9685,9.9685 v 0 c 0,-5.50546 -4.46305,-9.9685 -9.96851,-9.9685 h -0.58267 v 0 c -5.50545,0 -9.96851,-4.46306 -9.96851,-9.96851"
       fill-rule="evenodd"
       id="path24" />
    <path
       stroke="#595959"
       stroke-width="1"
       stroke-linejoin="round"
       stroke-linecap="butt"
       d="m 220.06342,203.72966 v 0 c 0,2.64381 -1.05025,5.17934 -2.91971,7.0488 -1.86946,1.86946 -4.40498,2.91971 -7.0488,2.91971 h -0.58267 v 0 c -5.50545,0 -9.9685,4.46304 -9.9685,9.9685 v 0 c 0,-5.50546 -4.46305,-9.9685 -9.96851,-9.9685 h -0.58267 v 0 c -5.50545,0 -9.96851,-4.46306 -9.96851,-9.96851"
       fill-rule="evenodd"
       id="path25" />
    <path
       fill="#000000"
       fill-opacity="0"
       d="m 356.60672,205.2441 v 0 c 0,2.64381 -1.05023,5.17934 -2.91971,7.0488 -1.86944,1.86946 -4.40497,2.91971 -7.0488,2.91971 H 335.1579 v 0 c -5.50543,0 -9.96851,4.46304 -9.96851,9.9685 v 0 c 0,-5.50546 -4.46304,-9.9685 -9.9685,-9.9685 h -11.48032 c -5.50543,0 -9.96847,-4.46306 -9.96847,-9.96851 z"
       fill-rule="evenodd"
       id="path26" />
    <path
       fill="#000000"
       fill-opacity="0"
       d="m 356.60672,205.2441 v 0 c 0,2.64381 -1.05023,5.17934 -2.91971,7.0488 -1.86944,1.86946 -4.40497,2.91971 -7.0488,2.91971 H 335.1579 v 0 c -5.50543,0 -9.96851,4.46304 -9.96851,9.9685 v 0 c 0,-5.50546 -4.46304,-9.9685 -9.9685,-9.9685 h -11.48032 c -5.50543,0 -9.96847,-4.46306 -9.96847,-9.96851"
       fill-rule="evenodd"
       id="path27" />
    <path
       stroke="#595959"
       stroke-width="1"
       stroke-linejoin="round"
       stroke-linecap="butt"
       d="m 356.60672,205.2441 v 0 c 0,2.64381 -1.05023,5.17934 -2.91971,7.0488 -1.86944,1.86946 -4.40497,2.91971 -7.0488,2.91971 H 335.1579 v 0 c -5.50543,0 -9.96851,4.46304 -9.96851,9.9685 v 0 c 0,-5.50546 -4.46304,-9.9685 -9.9685,-9.9685 h -11.48032 c -5.50543,0 -9.96847,-4.46306 -9.96847,-9.96851"
       fill-rule="evenodd"
       id="path28" />
    <path
       fill="#000000"
       fill-opacity="0"
       d="m 141.15266,213.90552 h 111.1181 v 41.88975 h -111.1181 z"
       fill-rule="evenodd"
       id="path29" />
    <path
       fill="#ff0000"
       d="m 184.00859,245.94551 v -17.1875 h 11.59375 v 2.03125 h -9.3125 v 5.32813 h 8.0625 v 2.01562 h -8.0625 v 7.8125 z m 11.33594,0 6.59375,-17.1875 h 2.45312 l 7.03125,17.1875 h -2.59375 l -2,-5.20312 h -7.1875 l -1.89062,5.20312 z m 4.95312,-7.0625 h 5.82813 l -1.79688,-4.75 q -0.8125,-2.17187 -1.21875,-3.5625 -0.32812,1.65625 -0.92187,3.28125 z"
       fill-rule="nonzero"
       id="path30" />
    <path
       fill="#ff0000"
       d="m 159.41383,268.86365 q -1.0625,-1.34375 -1.79688,-3.14063 -0.73437,-1.8125 -0.73437,-3.73437 0,-1.70313 0.54687,-3.26563 0.64063,-1.8125 1.98438,-3.60937 h 0.92187 q -0.85937,1.48437 -1.14062,2.125 -0.4375,0.98437 -0.6875,2.0625 -0.29688,1.34375 -0.29688,2.6875 0,3.45312 2.125,6.875 z m 2.74002,-3.07813 v -6.59375 h -1.14062 v -1 h 1.14062 v -0.8125 q 0,-0.76562 0.125,-1.14062 0.1875,-0.5 0.65625,-0.8125 0.46875,-0.3125 1.3125,-0.3125 0.54688,0 1.20313,0.125 l -0.1875,1.125 q -0.40625,-0.0625 -0.76563,-0.0625 -0.57812,0 -0.82812,0.25 -0.23438,0.25 -0.23438,0.9375 v 0.70312 h 1.46875 v 1 h -1.46875 v 6.59375 z m 8.7126,-0.9375 q -0.71875,0.60938 -1.375,0.85938 -0.65625,0.25 -1.42187,0.25 -1.25,0 -1.92188,-0.60938 -0.67187,-0.60937 -0.67187,-1.5625 0,-0.5625 0.25,-1.01562 0.25,-0.46875 0.65625,-0.75 0.42187,-0.28125 0.9375,-0.42188 0.375,-0.0937 1.14062,-0.1875 1.5625,-0.1875 2.29688,-0.45312 0.0156,-0.26563 0.0156,-0.32813 0,-0.79687 -0.375,-1.10937 -0.48437,-0.4375 -1.45312,-0.4375 -0.92188,0 -1.35938,0.32812 -0.42187,0.3125 -0.625,1.10938 l -1.26562,-0.17188 q 0.17187,-0.79687 0.5625,-1.29687 0.39062,-0.5 1.14062,-0.76563 0.75,-0.26562 1.71875,-0.26562 0.98438,0 1.59375,0.23437 0.60938,0.21875 0.89063,0.5625 0.28125,0.34375 0.40625,0.875 0.0625,0.32813 0.0625,1.1875 v 1.71875 q 0,1.79688 0.0781,2.28125 0.0781,0.46875 0.32813,0.90625 h -1.34375 q -0.20313,-0.40625 -0.26563,-0.9375 z m -0.10937,-2.875 q -0.70313,0.28125 -2.09375,0.48438 -0.79688,0.10937 -1.125,0.26562 -0.32813,0.14063 -0.51563,0.42188 -0.17187,0.26562 -0.17187,0.59375 0,0.51562 0.39062,0.85937 0.39063,0.34375 1.14063,0.34375 0.73437,0 1.3125,-0.3125 0.59375,-0.32812 0.85937,-0.89062 0.20313,-0.4375 0.20313,-1.29688 z m 3.2761,3.8125 v -10.48437 h 1.28125 v 10.48437 z m 2.77178,-2.26562 1.26562,-0.20313 q 0.10938,0.76563 0.59375,1.17188 0.5,0.40625 1.375,0.40625 0.89063,0 1.3125,-0.35938 0.4375,-0.35937 0.4375,-0.84375 0,-0.4375 -0.375,-0.6875 -0.26562,-0.17187 -1.3125,-0.4375 -1.42187,-0.35937 -1.96875,-0.60937 -0.54687,-0.26563 -0.82812,-0.73438 -0.28125,-0.46875 -0.28125,-1.01562 0,-0.51563 0.21875,-0.9375 0.23437,-0.4375 0.64062,-0.73438 0.29688,-0.21875 0.8125,-0.35937 0.53125,-0.15625 1.125,-0.15625 0.89063,0 1.5625,0.26562 0.67188,0.25 1,0.6875 0.32813,0.4375 0.4375,1.17188 l -1.25,0.17187 q -0.0937,-0.57812 -0.5,-0.90625 -0.40625,-0.34375 -1.15625,-0.34375 -0.89062,0 -1.28125,0.29688 -0.375,0.29687 -0.375,0.6875 0,0.25 0.15625,0.45312 0.15625,0.20313 0.5,0.34375 0.1875,0.0781 1.14063,0.32813 1.35937,0.35937 1.89062,0.59375 0.54688,0.23437 0.85938,0.6875 0.3125,0.4375 0.3125,1.09375 0,0.64062 -0.375,1.21875 -0.375,0.5625 -1.09375,0.875 -0.70313,0.3125 -1.59375,0.3125 -1.48438,0 -2.26563,-0.60938 -0.76562,-0.625 -0.98437,-1.82812 z m 13.04687,-0.1875 1.32813,0.17187 q -0.3125,1.17188 -1.17188,1.8125 -0.84375,0.64063 -2.17187,0.64063 -1.67188,0 -2.65625,-1.01563 -0.96875,-1.03125 -0.96875,-2.89062 0,-1.92188 0.98437,-2.96875 1,-1.0625 2.57813,-1.0625 1.51562,0 2.48437,1.03125 0.96875,1.03125 0.96875,2.92187 0,0.10938 -0.0156,0.34375 h -5.65625 q 0.0625,1.25 0.70312,1.92188 0.64063,0.65625 1.59375,0.65625 0.70313,0 1.20313,-0.35938 0.5,-0.375 0.79687,-1.20312 z m -4.23437,-2.07813 h 4.25 q -0.0937,-0.95312 -0.48438,-1.4375 -0.625,-0.75 -1.60937,-0.75 -0.875,0 -1.48438,0.59375 -0.60937,0.59375 -0.67187,1.59375 z m 16.20746,3.59375 q -0.71875,0.60938 -1.375,0.85938 -0.65625,0.25 -1.42188,0.25 -1.25,0 -1.92187,-0.60938 -0.67188,-0.60937 -0.67188,-1.5625 0,-0.5625 0.25,-1.01562 0.25,-0.46875 0.65625,-0.75 0.42188,-0.28125 0.9375,-0.42188 0.375,-0.0937 1.14063,-0.1875 1.5625,-0.1875 2.29687,-0.45312 0.0156,-0.26563 0.0156,-0.32813 0,-0.79687 -0.375,-1.10937 -0.48438,-0.4375 -1.45313,-0.4375 -0.92187,0 -1.35937,0.32812 -0.42188,0.3125 -0.625,1.10938 l -1.26563,-0.17188 q 0.17188,-0.79687 0.5625,-1.29687 0.39063,-0.5 1.14063,-0.76563 0.75,-0.26562 1.71875,-0.26562 0.98437,0 1.59375,0.23437 0.60937,0.21875 0.89062,0.5625 0.28125,0.34375 0.40625,0.875 0.0625,0.32813 0.0625,1.1875 v 1.71875 q 0,1.79688 0.0781,2.28125 0.0781,0.46875 0.32812,0.90625 h -1.34375 q -0.20312,-0.40625 -0.26562,-0.9375 z m -0.10938,-2.875 q -0.70312,0.28125 -2.09375,0.48438 -0.79687,0.10937 -1.125,0.26562 -0.32812,0.14063 -0.51562,0.42188 -0.17188,0.26562 -0.17188,0.59375 0,0.51562 0.39063,0.85937 0.39062,0.34375 1.14062,0.34375 0.73438,0 1.3125,-0.3125 0.59375,-0.32812 0.85938,-0.89062 0.20312,-0.4375 0.20312,-1.29688 z m 3.27611,3.8125 v -10.48437 h 1.28125 v 10.48437 z m 8.24052,-0.9375 q -0.71875,0.60938 -1.375,0.85938 -0.65625,0.25 -1.42187,0.25 -1.25,0 -1.92188,-0.60938 -0.67187,-0.60937 -0.67187,-1.5625 0,-0.5625 0.25,-1.01562 0.25,-0.46875 0.65625,-0.75 0.42187,-0.28125 0.9375,-0.42188 0.375,-0.0937 1.14062,-0.1875 1.5625,-0.1875 2.29688,-0.45312 0.0156,-0.26563 0.0156,-0.32813 0,-0.79687 -0.375,-1.10937 -0.48437,-0.4375 -1.45312,-0.4375 -0.92188,0 -1.35938,0.32812 -0.42187,0.3125 -0.625,1.10938 l -1.26562,-0.17188 q 0.17187,-0.79687 0.5625,-1.29687 0.39062,-0.5 1.14062,-0.76563 0.75,-0.26562 1.71875,-0.26562 0.98438,0 1.59375,0.23437 0.60938,0.21875 0.89063,0.5625 0.28125,0.34375 0.40625,0.875 0.0625,0.32813 0.0625,1.1875 v 1.71875 q 0,1.79688 0.0781,2.28125 0.0781,0.46875 0.32813,0.90625 h -1.34375 q -0.20313,-0.40625 -0.26563,-0.9375 z m -0.10937,-2.875 q -0.70313,0.28125 -2.09375,0.48438 -0.79688,0.10937 -1.125,0.26562 -0.32813,0.14063 -0.51563,0.42188 -0.17187,0.26562 -0.17187,0.59375 0,0.51562 0.39062,0.85937 0.39063,0.34375 1.14063,0.34375 0.73437,0 1.3125,-0.3125 0.59375,-0.32812 0.85937,-0.89062 0.20313,-0.4375 0.20313,-1.29688 z m 3.29173,3.8125 v -7.59375 h 1.15625 v 1.14063 q 0.45313,-0.79688 0.82813,-1.04688 0.375,-0.26562 0.8125,-0.26562 0.65625,0 1.32812,0.40625 l -0.4375,1.20312 q -0.46875,-0.28125 -0.95312,-0.28125 -0.42188,0 -0.76563,0.25 -0.32812,0.25 -0.46875,0.70313 -0.21875,0.6875 -0.21875,1.5 v 3.98437 z m 4.89627,0 v -7.59375 h 1.15625 v 1.0625 q 0.34375,-0.5625 0.9375,-0.89062 0.60938,-0.34375 1.35938,-0.34375 0.84375,0 1.375,0.34375 0.54687,0.34375 0.76562,0.98437 0.90625,-1.32812 2.35938,-1.32812 1.125,0 1.73437,0.625 0.60938,0.625 0.60938,1.92187 v 5.21875 h -1.28125 v -4.78125 q 0,-0.78125 -0.125,-1.10937 -0.125,-0.34375 -0.45313,-0.54688 -0.32812,-0.21875 -0.78125,-0.21875 -0.79687,0 -1.32812,0.53125 -0.53125,0.53125 -0.53125,1.70313 v 4.42187 h -1.28125 v -4.9375 q 0,-0.85937 -0.3125,-1.28125 -0.3125,-0.4375 -1.03125,-0.4375 -0.54688,0 -1.01563,0.29688 -0.45312,0.28125 -0.67187,0.82812 -0.20313,0.54688 -0.20313,1.59375 v 3.9375 z m 13.05252,3.07813 h -0.92187 q 2.14062,-3.42188 2.14062,-6.875 0,-1.34375 -0.3125,-2.67188 -0.25,-1.0625 -0.67187,-2.04687 -0.28125,-0.65625 -1.15625,-2.15625 h 0.92187 q 1.34375,1.79687 1.98438,3.60937 0.54687,1.5625 0.54687,3.26563 0,1.92187 -0.73437,3.73437 -0.73438,1.79688 -1.79688,3.14063 z"
       fill-rule="nonzero"
       id="path31" />
    <path
       fill="#000000"
       fill-opacity="0"
       d="m 269.15265,213.90552 h 111.1181 v 41.88975 h -111.1181 z"
       fill-rule="evenodd"
       id="path32" />
    <path
       fill="#ff0000"
       d="m 312.00858,245.94551 v -17.1875 h 11.59375 v 2.03125 h -9.3125 v 5.32813 h 8.0625 v 2.01562 h -8.0625 v 7.8125 z m 11.33594,0 6.59375,-17.1875 h 2.45312 l 7.03125,17.1875 h -2.59375 l -2,-5.20312 h -7.1875 l -1.89062,5.20312 z m 4.95312,-7.0625 h 5.82813 l -1.79688,-4.75 q -0.8125,-2.17187 -1.21875,-3.5625 -0.32812,1.65625 -0.92187,3.28125 z"
       fill-rule="nonzero"
       id="path33" />
    <path
       fill="#ff0000"
       d="m 287.41382,268.86365 q -1.0625,-1.34375 -1.79688,-3.14063 -0.73437,-1.8125 -0.73437,-3.73437 0,-1.70313 0.54687,-3.26563 0.64063,-1.8125 1.98438,-3.60937 h 0.92187 q -0.85937,1.48437 -1.14062,2.125 -0.4375,0.98437 -0.6875,2.0625 -0.29688,1.34375 -0.29688,2.6875 0,3.45312 2.125,6.875 z m 2.74002,-3.07813 v -6.59375 h -1.14062 v -1 h 1.14062 v -0.8125 q 0,-0.76562 0.125,-1.14062 0.1875,-0.5 0.65625,-0.8125 0.46875,-0.3125 1.3125,-0.3125 0.54688,0 1.20313,0.125 l -0.1875,1.125 q -0.40625,-0.0625 -0.76563,-0.0625 -0.57812,0 -0.82812,0.25 -0.23438,0.25 -0.23438,0.9375 v 0.70312 h 1.46875 v 1 h -1.46875 v 6.59375 z m 8.71262,-0.9375 q -0.71875,0.60938 -1.375,0.85938 -0.65625,0.25 -1.42188,0.25 -1.25,0 -1.92187,-0.60938 -0.67188,-0.60937 -0.67188,-1.5625 0,-0.5625 0.25,-1.01562 0.25,-0.46875 0.65625,-0.75 0.42188,-0.28125 0.9375,-0.42188 0.375,-0.0937 1.14063,-0.1875 1.5625,-0.1875 2.29687,-0.45312 0.0156,-0.26563 0.0156,-0.32813 0,-0.79687 -0.375,-1.10937 -0.48438,-0.4375 -1.45313,-0.4375 -0.92187,0 -1.35937,0.32812 -0.42188,0.3125 -0.625,1.10938 l -1.26563,-0.17188 q 0.17188,-0.79687 0.5625,-1.29687 0.39063,-0.5 1.14063,-0.76563 0.75,-0.26562 1.71875,-0.26562 0.98437,0 1.59375,0.23437 0.60937,0.21875 0.89062,0.5625 0.28125,0.34375 0.40625,0.875 0.0625,0.32813 0.0625,1.1875 v 1.71875 q 0,1.79688 0.0781,2.28125 0.0781,0.46875 0.32812,0.90625 h -1.34375 q -0.20312,-0.40625 -0.26562,-0.9375 z m -0.10938,-2.875 q -0.70312,0.28125 -2.09375,0.48438 -0.79687,0.10937 -1.125,0.26562 -0.32812,0.14063 -0.51562,0.42188 -0.17188,0.26562 -0.17188,0.59375 0,0.51562 0.39063,0.85937 0.39062,0.34375 1.14062,0.34375 0.73438,0 1.3125,-0.3125 0.59375,-0.32812 0.85938,-0.89062 0.20312,-0.4375 0.20312,-1.29688 z m 3.27609,3.8125 v -10.48437 h 1.28125 v 10.48437 z m 2.77179,-2.26562 1.26563,-0.20313 q 0.10937,0.76563 0.59375,1.17188 0.5,0.40625 1.375,0.40625 0.89062,0 1.3125,-0.35938 0.4375,-0.35937 0.4375,-0.84375 0,-0.4375 -0.375,-0.6875 -0.26563,-0.17187 -1.3125,-0.4375 -1.42188,-0.35937 -1.96875,-0.60937 -0.54688,-0.26563 -0.82813,-0.73438 -0.28125,-0.46875 -0.28125,-1.01562 0,-0.51563 0.21875,-0.9375 0.23438,-0.4375 0.64063,-0.73438 0.29687,-0.21875 0.8125,-0.35937 0.53125,-0.15625 1.125,-0.15625 0.89062,0 1.5625,0.26562 0.67187,0.25 1,0.6875 0.32812,0.4375 0.4375,1.17188 l -1.25,0.17187 q -0.0937,-0.57812 -0.5,-0.90625 -0.40625,-0.34375 -1.15625,-0.34375 -0.89063,0 -1.28125,0.29688 -0.375,0.29687 -0.375,0.6875 0,0.25 0.15625,0.45312 0.15625,0.20313 0.5,0.34375 0.1875,0.0781 1.14062,0.32813 1.35938,0.35937 1.89063,0.59375 0.54687,0.23437 0.85937,0.6875 0.3125,0.4375 0.3125,1.09375 0,0.64062 -0.375,1.21875 -0.375,0.5625 -1.09375,0.875 -0.70312,0.3125 -1.59375,0.3125 -1.48437,0 -2.26562,-0.60938 -0.76563,-0.625 -0.98438,-1.82812 z m 13.04688,-0.1875 1.32812,0.17187 q -0.3125,1.17188 -1.17187,1.8125 -0.84375,0.64063 -2.17188,0.64063 -1.67187,0 -2.65625,-1.01563 -0.96875,-1.03125 -0.96875,-2.89062 0,-1.92188 0.98438,-2.96875 1,-1.0625 2.57812,-1.0625 1.51563,0 2.48438,1.03125 0.96875,1.03125 0.96875,2.92187 0,0.10938 -0.0156,0.34375 h -5.65625 q 0.0625,1.25 0.70313,1.92188 0.64062,0.65625 1.59375,0.65625 0.70312,0 1.20312,-0.35938 0.5,-0.375 0.79688,-1.20312 z m -4.23438,-2.07813 h 4.25 q -0.0937,-0.95312 -0.48437,-1.4375 -0.625,-0.75 -1.60938,-0.75 -0.875,0 -1.48437,0.59375 -0.60938,0.59375 -0.67188,1.59375 z m 16.20746,3.59375 q -0.71875,0.60938 -1.375,0.85938 -0.65625,0.25 -1.42187,0.25 -1.25,0 -1.92188,-0.60938 -0.67187,-0.60937 -0.67187,-1.5625 0,-0.5625 0.25,-1.01562 0.25,-0.46875 0.65625,-0.75 0.42187,-0.28125 0.9375,-0.42188 0.375,-0.0937 1.14062,-0.1875 1.5625,-0.1875 2.29688,-0.45312 0.0156,-0.26563 0.0156,-0.32813 0,-0.79687 -0.375,-1.10937 -0.48437,-0.4375 -1.45312,-0.4375 -0.92188,0 -1.35938,0.32812 -0.42187,0.3125 -0.625,1.10938 l -1.26562,-0.17188 q 0.17187,-0.79687 0.5625,-1.29687 0.39062,-0.5 1.14062,-0.76563 0.75,-0.26562 1.71875,-0.26562 0.98438,0 1.59375,0.23437 0.60938,0.21875 0.89063,0.5625 0.28125,0.34375 0.40625,0.875 0.0625,0.32813 0.0625,1.1875 v 1.71875 q 0,1.79688 0.0781,2.28125 0.0781,0.46875 0.32813,0.90625 h -1.34375 q -0.20313,-0.40625 -0.26563,-0.9375 z m -0.10937,-2.875 q -0.70313,0.28125 -2.09375,0.48438 -0.79688,0.10937 -1.125,0.26562 -0.32813,0.14063 -0.51563,0.42188 -0.17187,0.26562 -0.17187,0.59375 0,0.51562 0.39062,0.85937 0.39063,0.34375 1.14063,0.34375 0.73437,0 1.3125,-0.3125 0.59375,-0.32812 0.85937,-0.89062 0.20313,-0.4375 0.20313,-1.29688 z m 3.27609,3.8125 v -10.48437 h 1.28125 v 10.48437 z m 8.24054,-0.9375 q -0.71875,0.60938 -1.375,0.85938 -0.65625,0.25 -1.42188,0.25 -1.25,0 -1.92187,-0.60938 -0.67188,-0.60937 -0.67188,-1.5625 0,-0.5625 0.25,-1.01562 0.25,-0.46875 0.65625,-0.75 0.42188,-0.28125 0.9375,-0.42188 0.375,-0.0937 1.14063,-0.1875 1.5625,-0.1875 2.29687,-0.45312 0.0156,-0.26563 0.0156,-0.32813 0,-0.79687 -0.375,-1.10937 -0.48438,-0.4375 -1.45313,-0.4375 -0.92187,0 -1.35937,0.32812 -0.42188,0.3125 -0.625,1.10938 l -1.26563,-0.17188 q 0.17188,-0.79687 0.5625,-1.29687 0.39063,-0.5 1.14063,-0.76563 0.75,-0.26562 1.71875,-0.26562 0.98437,0 1.59375,0.23437 0.60937,0.21875 0.89062,0.5625 0.28125,0.34375 0.40625,0.875 0.0625,0.32813 0.0625,1.1875 v 1.71875 q 0,1.79688 0.0781,2.28125 0.0781,0.46875 0.32812,0.90625 h -1.34375 q -0.20312,-0.40625 -0.26562,-0.9375 z m -0.10938,-2.875 q -0.70312,0.28125 -2.09375,0.48438 -0.79687,0.10937 -1.125,0.26562 -0.32812,0.14063 -0.51562,0.42188 -0.17188,0.26562 -0.17188,0.59375 0,0.51562 0.39063,0.85937 0.39062,0.34375 1.14062,0.34375 0.73438,0 1.3125,-0.3125 0.59375,-0.32812 0.85938,-0.89062 0.20312,-0.4375 0.20312,-1.29688 z m 3.29172,3.8125 v -7.59375 h 1.15625 v 1.14063 q 0.45313,-0.79688 0.82813,-1.04688 0.375,-0.26562 0.8125,-0.26562 0.65625,0 1.32812,0.40625 l -0.4375,1.20312 q -0.46875,-0.28125 -0.95312,-0.28125 -0.42188,0 -0.76563,0.25 -0.32812,0.25 -0.46875,0.70313 -0.21875,0.6875 -0.21875,1.5 v 3.98437 z m 4.89627,0 v -7.59375 h 1.15625 v 1.0625 q 0.34375,-0.5625 0.9375,-0.89062 0.60938,-0.34375 1.35938,-0.34375 0.84375,0 1.375,0.34375 0.54687,0.34375 0.76562,0.98437 0.90625,-1.32812 2.35938,-1.32812 1.125,0 1.73437,0.625 0.60938,0.625 0.60938,1.92187 v 5.21875 h -1.28125 v -4.78125 q 0,-0.78125 -0.125,-1.10937 -0.125,-0.34375 -0.45313,-0.54688 -0.32812,-0.21875 -0.78125,-0.21875 -0.79687,0 -1.32812,0.53125 -0.53125,0.53125 -0.53125,1.70313 v 4.42187 h -1.28125 v -4.9375 q 0,-0.85937 -0.3125,-1.28125 -0.3125,-0.4375 -1.03125,-0.4375 -0.54688,0 -1.01563,0.29688 -0.45312,0.28125 -0.67187,0.82812 -0.20313,0.54688 -0.20313,1.59375 v 3.9375 z m 13.05252,3.07813 h -0.92187 q 2.14062,-3.42188 2.14062,-6.875 0,-1.34375 -0.3125,-2.67188 -0.25,-1.0625 -0.67187,-2.04687 -0.28125,-0.65625 -1.15625,-2.15625 h 0.92187 q 1.34375,1.79687 1.98438,3.60937 0.54687,1.5625 0.54687,3.26563 0,1.92187 -0.73437,3.73437 -0.73438,1.79688 -1.79688,3.14063 z"
       fill-rule="nonzero"
       id="path34" />
    <path
       fill="#3d85c6"
       d="m 486.444,190.2441 h 82.11026 V 207 H 486.444 Z"
       fill-rule="evenodd"
       id="path35" />
    <path
       stroke="#595959"
       stroke-width="1"
       stroke-linejoin="round"
       stroke-linecap="butt"
       d="m 486.444,190.2441 h 82.11026 V 207 H 486.444 Z"
       fill-rule="evenodd"
       id="path36" />
    <path
       fill="#000000"
       fill-opacity="0"
       d="M 539.7701,73.71654 V 205.2441"
       fill-rule="evenodd"
       id="path37" />
    <path
       stroke="#595959"
       stroke-width="1"
       stroke-linejoin="round"
       stroke-linecap="butt"
       stroke-dasharray="8, 3, 1, 3"
       d="M 539.7701,73.71654 V 205.2441"
       fill-rule="evenodd"
       id="path38" />
    <path
       fill="#000000"
       fill-opacity="0"
       d="M 569.257,73.71654 V 205.2441"
       fill-rule="evenodd"
       id="path39" />
    <path
       stroke="#595959"
       stroke-width="1"
       stroke-linejoin="round"
       stroke-linecap="butt"
       stroke-dasharray="8, 3, 1, 3"
       d="M 569.257,73.71654 V 205.2441"
       fill-rule="evenodd"
       id="path40" />
    <path
       fill="#e06666"
       d="M 432.5823,190.2441 H 487.039 V 207 h -54.4567 z"
       fill-rule="evenodd"
       id="path41" />
    <path
       stroke="#595959"
       stroke-width="1"
       stroke-linejoin="round"
       stroke-linecap="butt"
       d="M 432.5823,190.2441 H 487.039 V 207 h -54.4567 z"
       fill-rule="evenodd"
       id="path42" />
    <path
       fill="#93c47d"
       d="m 397.16095,190.2441 h 34.96063 V 207 h -34.96063 z"
       fill-rule="evenodd"
       id="path43" />
    <path
       stroke="#595959"
       stroke-width="1"
       stroke-linejoin="round"
       stroke-linecap="butt"
       d="m 397.16095,190.2441 h 34.96063 V 207 h -34.96063 z"
       fill-rule="evenodd"
       id="path44" />
    <path
       fill="#000000"
       fill-opacity="0"
       d="m 569.381,208.8189 v 0 c 0,5.50546 -3.37372,9.96851 -7.5354,9.96851 v 0 0 c -4.16174,0 -7.53546,4.46305 -7.53546,9.9685 v 0 c 0,-5.50545 -3.37372,-9.9685 -7.5354,-9.9685 v 0 c -4.16175,0 -7.53546,-4.46305 -7.53546,-9.96851 z"
       fill-rule="evenodd"
       id="path45" />
    <path
       fill="#000000"
       fill-opacity="0"
       d="m 569.381,208.8189 v 0 c 0,5.50546 -3.37372,9.96851 -7.5354,9.96851 v 0 0 c -4.16174,0 -7.53546,4.46305 -7.53546,9.9685 v 0 c 0,-5.50545 -3.37372,-9.9685 -7.5354,-9.9685 v 0 c -4.16175,0 -7.53546,-4.46305 -7.53546,-9.96851"
       fill-rule="evenodd"
       id="path46" />
    <path
       stroke="#595959"
       stroke-width="1"
       stroke-linejoin="round"
       stroke-linecap="butt"
       d="m 569.381,208.8189 v 0 c 0,5.50546 -3.37372,9.96851 -7.5354,9.96851 v 0 0 c -4.16174,0 -7.53546,4.46305 -7.53546,9.9685 v 0 c 0,-5.50545 -3.37372,-9.9685 -7.5354,-9.9685 v 0 c -4.16175,0 -7.53546,-4.46305 -7.53546,-9.96851"
       fill-rule="evenodd"
       id="path47" />
    <path
       fill="#000000"
       fill-opacity="0"
       d="m 475.83206,218.15749 h 155.8425 v 41.88975 h -155.8425 z"
       fill-rule="evenodd"
       id="path48" />
    <path
       fill="#ff0000"
       d="m 537.53455,250.19748 v -17.1875 h 3.42187 l 4.0625,12.17188 q 0.5625,1.70312 0.82813,2.54687 0.29687,-0.9375 0.90625,-2.76562 l 4.125,-11.95313 h 3.04687 v 17.1875 h -2.1875 v -14.375 l -4.98437,14.375 h -2.0625 l -4.96875,-14.625 v 14.625 z m 19.28906,-5.51562 2.14063,-0.1875 q 0.15625,1.28125 0.70312,2.10937 0.5625,0.82813 1.73438,1.34375 1.17187,0.5 2.64062,0.5 1.29688,0 2.29688,-0.375 1,-0.39062 1.48437,-1.0625 0.48438,-0.6875 0.48438,-1.48437 0,-0.79688 -0.46875,-1.40625 -0.46875,-0.60938 -1.54688,-1.01563 -0.6875,-0.26562 -3.0625,-0.82812 -2.35937,-0.57813 -3.3125,-1.07813 -1.23437,-0.64062 -1.84375,-1.59375 -0.59375,-0.96875 -0.59375,-2.14062 0,-1.3125 0.73438,-2.4375 0.75,-1.125 2.15625,-1.70313 1.42187,-0.59375 3.15625,-0.59375 1.90625,0 3.35937,0.60938 1.46875,0.60937 2.25,1.8125 0.79688,1.1875 0.84375,2.70312 l -2.17187,0.17188 q -0.17188,-1.64063 -1.1875,-2.46875 -1.01563,-0.82813 -3,-0.82813 -2.0625,0 -3.01563,0.76563 -0.9375,0.75 -0.9375,1.8125 0,0.92187 0.67188,1.51562 0.65625,0.60938 3.42187,1.23438 2.78125,0.625 3.8125,1.09375 1.5,0.6875 2.20313,1.75 0.71875,1.0625 0.71875,2.4375 0,1.375 -0.78125,2.59375 -0.78125,1.20312 -2.25,1.89062 -1.46875,0.67188 -3.3125,0.67188 -2.32813,0 -3.90625,-0.67188 -1.57813,-0.6875 -2.48438,-2.04687 -0.89062,-1.375 -0.9375,-3.09375 z"
       fill-rule="nonzero"
       id="path49" />
    <path
       fill="#ff0000"
       d="m 497.30496,273.1156 q -1.0625,-1.34375 -1.79688,-3.14063 -0.73437,-1.8125 -0.73437,-3.73437 0,-1.70313 0.54687,-3.26563 0.64063,-1.8125 1.98438,-3.60937 h 0.92187 q -0.85937,1.48437 -1.14062,2.125 -0.4375,0.98437 -0.6875,2.0625 -0.29688,1.34375 -0.29688,2.6875 0,3.45312 2.125,6.875 z m 2.42752,-3.07813 v -7.59375 h 1.15625 v 1.0625 q 0.34375,-0.5625 0.9375,-0.89062 0.60938,-0.34375 1.35938,-0.34375 0.84375,0 1.375,0.34375 0.54687,0.34375 0.76562,0.98437 0.90625,-1.32812 2.35938,-1.32812 1.125,0 1.73437,0.625 0.60938,0.625 0.60938,1.92187 v 5.21875 h -1.28125 v -4.78125 q 0,-0.78125 -0.125,-1.10937 -0.125,-0.34375 -0.45313,-0.54688 -0.32812,-0.21875 -0.78125,-0.21875 -0.79687,0 -1.32812,0.53125 -0.53125,0.53125 -0.53125,1.70313 v 4.42187 h -1.28125 v -4.9375 q 0,-0.85937 -0.3125,-1.28125 -0.3125,-0.4375 -1.03125,-0.4375 -0.54688,0 -1.01563,0.29688 -0.45312,0.28125 -0.67187,0.82812 -0.20313,0.54688 -0.20313,1.59375 v 3.9375 z m 12.20877,-9.01562 v -1.46875 h 1.29691 v 1.46875 z m 0,9.01562 v -7.59375 h 1.29691 v 7.59375 z m 2.74051,-2.26562 1.26563,-0.20313 q 0.10937,0.76563 0.59375,1.17188 0.5,0.40625 1.375,0.40625 0.89062,0 1.3125,-0.35938 0.4375,-0.35937 0.4375,-0.84375 0,-0.4375 -0.375,-0.6875 -0.26563,-0.17187 -1.3125,-0.4375 -1.42188,-0.35937 -1.96875,-0.60937 -0.54688,-0.26563 -0.82813,-0.73438 -0.28125,-0.46875 -0.28125,-1.01562 0,-0.51563 0.21875,-0.9375 0.23438,-0.4375 0.64063,-0.73438 0.29687,-0.21875 0.8125,-0.35937 0.53125,-0.15625 1.125,-0.15625 0.89062,0 1.5625,0.26562 0.67187,0.25 1,0.6875 0.32812,0.4375 0.4375,1.17188 l -1.25,0.17187 q -0.0937,-0.57812 -0.5,-0.90625 -0.40625,-0.34375 -1.15625,-0.34375 -0.89063,0 -1.28125,0.29688 -0.375,0.29687 -0.375,0.6875 0,0.25 0.15625,0.45312 0.15625,0.20313 0.5,0.34375 0.1875,0.0781 1.14062,0.32813 1.35938,0.35937 1.89063,0.59375 0.54687,0.23437 0.85937,0.6875 0.3125,0.4375 0.3125,1.09375 0,0.64062 -0.375,1.21875 -0.375,0.5625 -1.09375,0.875 -0.70312,0.3125 -1.59375,0.3125 -1.48437,0 -2.26562,-0.60938 -0.76563,-0.625 -0.98438,-1.82812 z m 7.32813,0 1.26562,-0.20313 q 0.10938,0.76563 0.59375,1.17188 0.5,0.40625 1.375,0.40625 0.89063,0 1.3125,-0.35938 0.4375,-0.35937 0.4375,-0.84375 0,-0.4375 -0.375,-0.6875 -0.26562,-0.17187 -1.3125,-0.4375 -1.42187,-0.35937 -1.96875,-0.60937 -0.54687,-0.26563 -0.82812,-0.73438 -0.28125,-0.46875 -0.28125,-1.01562 0,-0.51563 0.21875,-0.9375 0.23437,-0.4375 0.64062,-0.73438 0.29688,-0.21875 0.8125,-0.35937 0.53125,-0.15625 1.125,-0.15625 0.89063,0 1.5625,0.26562 0.67188,0.25 1,0.6875 0.32813,0.4375 0.4375,1.17188 l -1.25,0.17187 q -0.0937,-0.57812 -0.5,-0.90625 -0.40625,-0.34375 -1.15625,-0.34375 -0.89062,0 -1.28125,0.29688 -0.375,0.29687 -0.375,0.6875 0,0.25 0.15625,0.45312 0.15625,0.20313 0.5,0.34375 0.1875,0.0781 1.14063,0.32813 1.35937,0.35937 1.89062,0.59375 0.54688,0.23437 0.85938,0.6875 0.3125,0.4375 0.3125,1.09375 0,0.64062 -0.375,1.21875 -0.375,0.5625 -1.09375,0.875 -0.70313,0.3125 -1.59375,0.3125 -1.48438,0 -2.26563,-0.60938 -0.76562,-0.625 -0.98437,-1.82812 z m 13.04687,-0.1875 1.32813,0.17187 q -0.3125,1.17188 -1.17188,1.8125 -0.84375,0.64063 -2.17187,0.64063 -1.67188,0 -2.65625,-1.01563 -0.96875,-1.03125 -0.96875,-2.89062 0,-1.92188 0.98437,-2.96875 1,-1.0625 2.57813,-1.0625 1.51562,0 2.48437,1.03125 0.96875,1.03125 0.96875,2.92187 0,0.10938 -0.0156,0.34375 h -5.65625 q 0.0625,1.25 0.70312,1.92188 0.64063,0.65625 1.59375,0.65625 0.70313,0 1.20313,-0.35938 0.5,-0.375 0.79687,-1.20312 z m -4.23437,-2.07813 h 4.25 q -0.0937,-0.95312 -0.48438,-1.4375 -0.625,-0.75 -1.60937,-0.75 -0.875,0 -1.48438,0.59375 -0.60937,0.59375 -0.67187,1.59375 z m 12.10424,4.53125 v -0.95312 q -0.71875,1.125 -2.125,1.125 -0.90625,0 -1.67187,-0.5 -0.75,-0.5 -1.17188,-1.39063 -0.42187,-0.90625 -0.42187,-2.07812 0,-1.14063 0.375,-2.0625 0.39062,-0.92188 1.14062,-1.40625 0.76563,-0.5 1.70313,-0.5 0.6875,0 1.21875,0.29687 0.53125,0.28125 0.875,0.73438 v -3.75 h 1.28125 v 10.48437 z m -4.0625,-3.79687 q 0,1.46875 0.60938,2.1875 0.625,0.71875 1.45312,0.71875 0.84375,0 1.4375,-0.6875 0.59375,-0.6875 0.59375,-2.10938 0,-1.5625 -0.60937,-2.28125 -0.59375,-0.73437 -1.48438,-0.73437 -0.84375,0 -1.42187,0.70312 -0.57813,0.70313 -0.57813,2.20313 z m 16.28559,3.79687 v -0.95312 q -0.71875,1.125 -2.125,1.125 -0.90625,0 -1.67188,-0.5 -0.75,-0.5 -1.17187,-1.39063 -0.42188,-0.90625 -0.42188,-2.07812 0,-1.14063 0.375,-2.0625 0.39063,-0.92188 1.14063,-1.40625 0.76562,-0.5 1.70312,-0.5 0.6875,0 1.21875,0.29687 0.53125,0.28125 0.875,0.73438 v -3.75 h 1.28125 v 10.48437 z m -4.0625,-3.79687 q 0,1.46875 0.60937,2.1875 0.625,0.71875 1.45313,0.71875 0.84375,0 1.4375,-0.6875 0.59375,-0.6875 0.59375,-2.10938 0,-1.5625 -0.60938,-2.28125 -0.59375,-0.73437 -1.48437,-0.73437 -0.84375,0 -1.42188,0.70312 -0.57812,0.70313 -0.57812,2.20313 z m 12.49487,1.34375 1.32812,0.17187 q -0.3125,1.17188 -1.17187,1.8125 -0.84375,0.64063 -2.17188,0.64063 -1.67187,0 -2.65625,-1.01563 -0.96875,-1.03125 -0.96875,-2.89062 0,-1.92188 0.98438,-2.96875 1,-1.0625 2.57812,-1.0625 1.51563,0 2.48438,1.03125 0.96875,1.03125 0.96875,2.92187 0,0.10938 -0.0156,0.34375 h -5.65625 q 0.0625,1.25 0.70313,1.92188 0.64062,0.65625 1.59375,0.65625 0.70312,0 1.20312,-0.35938 0.5,-0.375 0.79688,-1.20312 z m -4.23438,-2.07813 h 4.25 q -0.0937,-0.95312 -0.48437,-1.4375 -0.625,-0.75 -1.60938,-0.75 -0.875,0 -1.48437,0.59375 -0.60938,0.59375 -0.67188,1.59375 z m 9.99488,3.375 0.1875,1.14063 q -0.54688,0.10937 -0.98438,0.10937 -0.6875,0 -1.07812,-0.21875 -0.39063,-0.21875 -0.54688,-0.57812 -0.15625,-0.35938 -0.15625,-1.51563 v -4.375 h -0.95312 v -1 h 0.95312 v -1.89062 l 1.28125,-0.76563 v 2.65625 h 1.29688 v 1 h -1.29688 v 4.4375 q 0,0.54688 0.0625,0.71875 0.0781,0.15625 0.21875,0.25 0.15625,0.0781 0.45313,0.0781 0.20312,0 0.5625,-0.0469 z m 6.46258,-1.29687 1.32813,0.17187 q -0.3125,1.17188 -1.17188,1.8125 -0.84375,0.64063 -2.17187,0.64063 -1.67188,0 -2.65625,-1.01563 -0.96875,-1.03125 -0.96875,-2.89062 0,-1.92188 0.98437,-2.96875 1,-1.0625 2.57813,-1.0625 1.51562,0 2.48437,1.03125 0.96875,1.03125 0.96875,2.92187 0,0.10938 -0.0156,0.34375 h -5.65625 q 0.0625,1.25 0.70312,1.92188 0.64063,0.65625 1.59375,0.65625 0.70313,0 1.20313,-0.35938 0.5,-0.375 0.79687,-1.20312 z m -4.23437,-2.07813 h 4.25 q -0.0937,-0.95312 -0.48438,-1.4375 -0.625,-0.75 -1.60937,-0.75 -0.875,0 -1.48438,0.59375 -0.60937,0.59375 -0.67187,1.59375 z m 12.1355,1.75 1.26562,0.15625 q -0.20312,1.3125 -1.0625,2.0625 -0.84375,0.73438 -2.09375,0.73438 -1.5625,0 -2.51562,-1.01563 -0.9375,-1.03125 -0.9375,-2.92187 0,-1.23438 0.40625,-2.15625 0.40625,-0.92188 1.23437,-1.375 0.84375,-0.46875 1.8125,-0.46875 1.25,0 2.03125,0.625 0.78125,0.625 1.01563,1.76562 l -1.26563,0.20313 q -0.17187,-0.76563 -0.625,-1.15625 -0.45312,-0.39063 -1.09375,-0.39063 -0.98437,0 -1.59375,0.70313 -0.60937,0.70312 -0.60937,2.20312 0,1.53125 0.57812,2.23438 0.59375,0.6875 1.54688,0.6875 0.75,0 1.26562,-0.45313 0.51563,-0.46875 0.64063,-1.4375 z m 5.1875,1.625 0.1875,1.14063 q -0.54688,0.10937 -0.98438,0.10937 -0.6875,0 -1.07812,-0.21875 -0.39063,-0.21875 -0.54688,-0.57812 -0.15625,-0.35938 -0.15625,-1.51563 v -4.375 h -0.95312 v -1 h 0.95312 v -1.89062 l 1.28125,-0.76563 v 2.65625 h 1.29688 v 1 h -1.29688 v 4.4375 q 0,0.54688 0.0625,0.71875 0.0781,0.15625 0.21875,0.25 0.15625,0.0781 0.45313,0.0781 0.20312,0 0.5625,-0.0469 z m 1.25946,-7.85937 v -1.46875 h 1.29687 v 1.46875 z m 0,9.01562 v -7.59375 h 1.29687 v 7.59375 z m 2.77179,-3.79687 q 0,-2.10938 1.17187,-3.125 0.98438,-0.84375 2.39063,-0.84375 1.57812,0 2.5625,1.03125 1,1.01562 1,2.82812 0,1.46875 -0.4375,2.3125 -0.4375,0.82813 -1.28125,1.29688 -0.84375,0.46875 -1.84375,0.46875 -1.59375,0 -2.57813,-1.01563 -0.98437,-1.03125 -0.98437,-2.95312 z m 1.32812,0 q 0,1.45312 0.625,2.1875 0.64063,0.71875 1.60938,0.71875 0.96875,0 1.59375,-0.71875 0.64062,-0.73438 0.64062,-2.23438 0,-1.40625 -0.64062,-2.125 -0.64063,-0.73437 -1.59375,-0.73437 -0.96875,0 -1.60938,0.71875 -0.625,0.71875 -0.625,2.1875 z m 7.30731,3.79687 v -7.59375 h 1.15625 v 1.07813 q 0.84375,-1.25 2.42188,-1.25 0.6875,0 1.26562,0.25 0.57813,0.23437 0.85938,0.64062 0.28125,0.40625 0.40625,0.95313 0.0625,0.35937 0.0625,1.25 v 4.67187 h -1.28125 v -4.625 q 0,-0.78125 -0.15625,-1.17187 -0.15625,-0.39063 -0.54688,-0.625 -0.375,-0.23438 -0.89062,-0.23438 -0.8125,0 -1.42188,0.53125 -0.59375,0.51563 -0.59375,1.96875 v 4.15625 z m 8.99488,3.07813 h -0.92188 q 2.14063,-3.42188 2.14063,-6.875 0,-1.34375 -0.3125,-2.67188 -0.25,-1.0625 -0.67188,-2.04687 -0.28125,-0.65625 -1.15625,-2.15625 h 0.92188 q 1.34375,1.79687 1.98437,3.60937 0.54688,1.5625 0.54688,3.26563 0,1.92187 -0.73438,3.73437 -0.73437,1.79688 -1.79687,3.14063 z"
       fill-rule="nonzero"
       id="path50" />
    <path
       fill="#6aa84f"
       d="m 740.05554,139.05774 h 54.45666 v 16.7559 h -54.45666 z"
       fill-rule="evenodd"
       id="path51" />
    <path
       stroke="#595959"
       stroke-width="1"
       stroke-linejoin="round"
       stroke-linecap="butt"
       d="m 740.05554,139.05774 h 54.45666 v 16.7559 h -54.45666 z"
       fill-rule="evenodd"
       id="path52" />
    <path
       fill="#3d85c6"
       d="m 794.9544,139.05774 h 128.18896 v 16.7559 H 794.9544 Z"
       fill-rule="evenodd"
       id="path53" />
    <path
       stroke="#595959"
       stroke-width="1"
       stroke-linejoin="round"
       stroke-linecap="butt"
       d="m 794.9544,139.05774 h 128.18896 v 16.7559 H 794.9544 Z"
       fill-rule="evenodd"
       id="path54" />
    <path
       fill="#6aa84f"
       d="m 699.0162,190.2441 h 95.93701 V 207 H 699.0162 Z"
       fill-rule="evenodd"
       id="path55" />
    <path
       stroke="#595959"
       stroke-width="1"
       stroke-linejoin="round"
       stroke-linecap="butt"
       d="m 699.0162,190.2441 h 95.93701 V 207 H 699.0162 Z"
       fill-rule="evenodd"
       id="path56" />
    <path
       fill="#e06666"
       d="M 794.9544,190.2441 H 923.14336 V 207 H 794.9544 Z"
       fill-rule="evenodd"
       id="path57" />
    <path
       stroke="#595959"
       stroke-width="1"
       stroke-linejoin="round"
       stroke-linecap="butt"
       d="M 794.9544,190.2441 H 923.14336 V 207 H 794.9544 Z"
       fill-rule="evenodd"
       id="path58" />
    <path
       fill="#000000"
       fill-opacity="0"
       d="M 699.7701,81.71654 V 213.2441"
       fill-rule="evenodd"
       id="path59" />
    <path
       stroke="#595959"
       stroke-width="1"
       stroke-linejoin="round"
       stroke-linecap="butt"
       stroke-dasharray="8, 3, 1, 3"
       d="M 699.7701,81.71654 V 213.2441"
       fill-rule="evenodd"
       id="path60" />
    <path
       fill="#000000"
       fill-opacity="0"
       d="M 739.3931,81.71654 V 213.2441"
       fill-rule="evenodd"
       id="path61" />
    <path
       stroke="#595959"
       stroke-width="1"
       stroke-linejoin="round"
       stroke-linecap="butt"
       stroke-dasharray="8, 3, 1, 3"
       d="M 739.3931,81.71654 V 213.2441"
       fill-rule="evenodd"
       id="path62" />
    <path
       fill="#000000"
       fill-opacity="0"
       d="M 795.1743,81.71654 V 213.2441"
       fill-rule="evenodd"
       id="path63" />
    <path
       stroke="#595959"
       stroke-width="1"
       stroke-linejoin="round"
       stroke-linecap="butt"
       stroke-dasharray="8, 3, 1, 3"
       d="M 795.1743,81.71654 V 213.2441"
       fill-rule="evenodd"
       id="path64" />
    <path
       fill="#000000"
       fill-opacity="0"
       d="M 922.79736,80.87884 V 212.4064"
       fill-rule="evenodd"
       id="path65" />
    <path
       stroke="#595959"
       stroke-width="1"
       stroke-linejoin="round"
       stroke-linecap="butt"
       stroke-dasharray="8, 3, 1, 3"
       d="M 922.79736,80.87884 V 212.4064"
       fill-rule="evenodd"
       id="path66" />
    <path
       fill="#000000"
       fill-opacity="0"
       d="m 739.3101,208.8189 v 0 c 0,2.64381 -1.05023,5.17934 -2.91968,7.0488 -1.86944,1.86946 -4.40497,2.91971 -7.04883,2.91971 h -0.0945 v 0 c -5.50543,0 -9.9685,4.46305 -9.9685,9.9685 v 0 c 0,-5.50545 -4.46302,-9.9685 -9.96851,-9.9685 h -0.0945 v 0 c -5.50543,0 -9.96851,-4.46305 -9.96851,-9.96851 z"
       fill-rule="evenodd"
       id="path67" />
    <path
       fill="#000000"
       fill-opacity="0"
       d="m 739.3101,208.8189 v 0 c 0,2.64381 -1.05023,5.17934 -2.91968,7.0488 -1.86944,1.86946 -4.40497,2.91971 -7.04883,2.91971 h -0.0945 v 0 c -5.50543,0 -9.9685,4.46305 -9.9685,9.9685 v 0 c 0,-5.50545 -4.46302,-9.9685 -9.96851,-9.9685 h -0.0945 v 0 c -5.50543,0 -9.96851,-4.46305 -9.96851,-9.96851"
       fill-rule="evenodd"
       id="path68" />
    <path
       stroke="#595959"
       stroke-width="1"
       stroke-linejoin="round"
       stroke-linecap="butt"
       d="m 739.3101,208.8189 v 0 c 0,2.64381 -1.05023,5.17934 -2.91968,7.0488 -1.86944,1.86946 -4.40497,2.91971 -7.04883,2.91971 h -0.0945 v 0 c -5.50543,0 -9.9685,4.46305 -9.9685,9.9685 v 0 c 0,-5.50545 -4.46302,-9.9685 -9.96851,-9.9685 h -0.0945 v 0 c -5.50543,0 -9.96851,-4.46305 -9.96851,-9.96851"
       fill-rule="evenodd"
       id="path69" />
    <path
       fill="#000000"
       fill-opacity="0"
       d="m 921.92694,208.8189 v 0 c 0,2.64381 -1.05023,5.17934 -2.91974,7.0488 -1.86944,1.86946 -4.40497,2.91971 -7.04877,2.91971 h -43.43304 c -5.50549,0 -9.96851,4.46305 -9.96851,9.9685 v 0 c 0,-5.50545 -4.46307,-9.9685 -9.9685,-9.9685 h -43.43311 c -5.50543,0 -9.9685,-4.46305 -9.9685,-9.96851 z"
       fill-rule="evenodd"
       id="path70" />
    <path
       fill="#000000"
       fill-opacity="0"
       d="m 921.92694,208.8189 v 0 c 0,2.64381 -1.05023,5.17934 -2.91974,7.0488 -1.86944,1.86946 -4.40497,2.91971 -7.04877,2.91971 h -43.43304 c -5.50549,0 -9.96851,4.46305 -9.96851,9.9685 v 0 c 0,-5.50545 -4.46307,-9.9685 -9.9685,-9.9685 h -43.43311 c -5.50543,0 -9.9685,-4.46305 -9.9685,-9.96851"
       fill-rule="evenodd"
       id="path71" />
    <path
       stroke="#595959"
       stroke-width="1"
       stroke-linejoin="round"
       stroke-linecap="butt"
       d="m 921.92694,208.8189 v 0 c 0,2.64381 -1.05023,5.17934 -2.91974,7.0488 -1.86944,1.86946 -4.40497,2.91971 -7.04877,2.91971 h -43.43304 c -5.50549,0 -9.96851,4.46305 -9.96851,9.9685 v 0 c 0,-5.50545 -4.46307,-9.9685 -9.9685,-9.9685 h -43.43311 c -5.50543,0 -9.9685,-4.46305 -9.9685,-9.96851"
       fill-rule="evenodd"
       id="path72" />
    <path
       fill="#000000"
       fill-opacity="0"
       d="m 643.336,218.15749 h 155.84253 v 41.88975 H 643.336 Z"
       fill-rule="evenodd"
       id="path73" />
    <path
       fill="#ff0000"
       d="m 705.66547,244.68185 2.14063,-0.1875 q 0.15625,1.28125 0.70312,2.10937 0.5625,0.82813 1.73438,1.34375 1.17187,0.5 2.64062,0.5 1.29688,0 2.29688,-0.375 1,-0.39062 1.48437,-1.0625 0.48438,-0.6875 0.48438,-1.48437 0,-0.79688 -0.46875,-1.40625 -0.46875,-0.60938 -1.54688,-1.01563 -0.6875,-0.26562 -3.0625,-0.82812 -2.35937,-0.57813 -3.3125,-1.07813 -1.23437,-0.64062 -1.84375,-1.59375 -0.59375,-0.96875 -0.59375,-2.14062 0,-1.3125 0.73438,-2.4375 0.75,-1.125 2.15625,-1.70313 1.42187,-0.59375 3.15625,-0.59375 1.90625,0 3.35937,0.60938 1.46875,0.60937 2.25,1.8125 0.79688,1.1875 0.84375,2.70312 l -2.17187,0.17188 q -0.17188,-1.64063 -1.1875,-2.46875 -1.01563,-0.82813 -3,-0.82813 -2.0625,0 -3.01563,0.76563 -0.9375,0.75 -0.9375,1.8125 0,0.92187 0.67188,1.51562 0.65625,0.60938 3.42187,1.23438 2.78125,0.625 3.8125,1.09375 1.5,0.6875 2.20313,1.75 0.71875,1.0625 0.71875,2.4375 0,1.375 -0.78125,2.59375 -0.78125,1.20312 -2.25,1.89062 -1.46875,0.67188 -3.3125,0.67188 -2.32813,0 -3.90625,-0.67188 -1.57813,-0.6875 -2.48438,-2.04687 -0.89062,-1.375 -0.9375,-3.09375 z m 29.03906,-0.51563 2.28125,0.57813 q -0.71875,2.79687 -2.57812,4.28125 -1.85938,1.46875 -4.54688,1.46875 -2.76562,0 -4.51562,-1.125 -1.73438,-1.14063 -2.64063,-3.28125 -0.90625,-2.15625 -0.90625,-4.60938 0,-2.6875 1.01563,-4.6875 1.03125,-2 2.92187,-3.03125 1.89063,-1.03125 4.17188,-1.03125 2.57812,0 4.32812,1.3125 1.76563,1.3125 2.45313,3.6875 l -2.23438,0.53125 q -0.60937,-1.875 -1.75,-2.73437 -1.125,-0.85938 -2.84375,-0.85938 -1.98437,0 -3.3125,0.95313 -1.32812,0.95312 -1.875,2.54687 -0.53125,1.59375 -0.53125,3.29688 0,2.1875 0.625,3.82812 0.64063,1.64063 1.98438,2.45313 1.35937,0.79687 2.92187,0.79687 1.92188,0 3.23438,-1.09375 1.32812,-1.10937 1.79687,-3.28125 z"
       fill-rule="nonzero"
       id="path74" />
    <path
       fill="#ff0000"
       d="m 676.2197,273.1156 q -1.0625,-1.34375 -1.79688,-3.14063 -0.73437,-1.8125 -0.73437,-3.73437 0,-1.70313 0.54687,-3.26563 0.64063,-1.8125 1.98438,-3.60937 h 0.92187 q -0.85937,1.48437 -1.14062,2.125 -0.4375,0.98437 -0.6875,2.0625 -0.29688,1.34375 -0.29688,2.6875 0,3.45312 2.125,6.875 z m 1.91193,-5.34375 1.26562,-0.20313 q 0.10938,0.76563 0.59375,1.17188 0.5,0.40625 1.375,0.40625 0.89063,0 1.3125,-0.35938 0.4375,-0.35937 0.4375,-0.84375 0,-0.4375 -0.375,-0.6875 -0.26562,-0.17187 -1.3125,-0.4375 -1.42187,-0.35937 -1.96875,-0.60937 -0.54687,-0.26563 -0.82812,-0.73438 -0.28125,-0.46875 -0.28125,-1.01562 0,-0.51563 0.21875,-0.9375 0.23437,-0.4375 0.64062,-0.73438 0.29688,-0.21875 0.8125,-0.35937 0.53125,-0.15625 1.125,-0.15625 0.89063,0 1.5625,0.26562 0.67188,0.25 1,0.6875 0.32813,0.4375 0.4375,1.17188 l -1.25,0.17187 q -0.0937,-0.57812 -0.5,-0.90625 -0.40625,-0.34375 -1.15625,-0.34375 -0.89062,0 -1.28125,0.29688 -0.375,0.29687 -0.375,0.6875 0,0.25 0.15625,0.45312 0.15625,0.20313 0.5,0.34375 0.1875,0.0781 1.14063,0.32813 1.35937,0.35937 1.89062,0.59375 0.54688,0.23437 0.85938,0.6875 0.3125,0.4375 0.3125,1.09375 0,0.64062 -0.375,1.21875 -0.375,0.5625 -1.09375,0.875 -0.70313,0.3125 -1.59375,0.3125 -1.48438,0 -2.26563,-0.60938 -0.76562,-0.625 -0.98437,-1.82812 z m 7.84375,5.17187 v -10.5 h 1.17187 v 0.98438 q 0.42188,-0.57813 0.9375,-0.85938 0.51563,-0.29687 1.26563,-0.29687 0.96875,0 1.71875,0.5 0.75,0.5 1.125,1.42187 0.375,0.90625 0.375,1.98438 0,1.17187 -0.42188,2.10937 -0.40625,0.92188 -1.21875,1.42188 -0.79687,0.5 -1.67187,0.5 -0.64063,0 -1.15625,-0.26563 -0.51563,-0.28125 -0.84375,-0.6875 v 3.6875 z m 1.15625,-6.65625 q 0,1.45313 0.59375,2.15625 0.60937,0.70313 1.45312,0.70313 0.85938,0 1.46875,-0.71875 0.60938,-0.73438 0.60938,-2.25 0,-1.45313 -0.60938,-2.17188 -0.59375,-0.73437 -1.42187,-0.73437 -0.8125,0 -1.45313,0.78125 -0.64062,0.76562 -0.64062,2.23437 z m 12.19799,1.29688 1.32813,0.17187 q -0.3125,1.17188 -1.17188,1.8125 -0.84375,0.64063 -2.17187,0.64063 -1.67188,0 -2.65625,-1.01563 -0.96875,-1.03125 -0.96875,-2.89062 0,-1.92188 0.98437,-2.96875 1,-1.0625 2.57813,-1.0625 1.51562,0 2.48437,1.03125 0.96875,1.03125 0.96875,2.92187 0,0.10938 -0.0156,0.34375 h -5.65625 q 0.0625,1.25 0.70312,1.92188 0.64063,0.65625 1.59375,0.65625 0.70313,0 1.20313,-0.35938 0.5,-0.375 0.79687,-1.20312 z m -4.23437,-2.07813 h 4.25 q -0.0937,-0.95312 -0.48438,-1.4375 -0.625,-0.75 -1.60937,-0.75 -0.875,0 -1.48438,0.59375 -0.60937,0.59375 -0.67187,1.59375 z m 12.13544,3.59375 q -0.71875,0.60938 -1.375,0.85938 -0.65625,0.25 -1.42188,0.25 -1.25,0 -1.92187,-0.60938 -0.67188,-0.60937 -0.67188,-1.5625 0,-0.5625 0.25,-1.01562 0.25,-0.46875 0.65625,-0.75 0.42188,-0.28125 0.9375,-0.42188 0.375,-0.0937 1.14063,-0.1875 1.5625,-0.1875 2.29687,-0.45312 0.0156,-0.26563 0.0156,-0.32813 0,-0.79687 -0.375,-1.10937 -0.48438,-0.4375 -1.45313,-0.4375 -0.92187,0 -1.35937,0.32812 -0.42188,0.3125 -0.625,1.10938 l -1.26563,-0.17188 q 0.17188,-0.79687 0.5625,-1.29687 0.39063,-0.5 1.14063,-0.76563 0.75,-0.26562 1.71875,-0.26562 0.98437,0 1.59375,0.23437 0.60937,0.21875 0.89062,0.5625 0.28125,0.34375 0.40625,0.875 0.0625,0.32813 0.0625,1.1875 v 1.71875 q 0,1.79688 0.0781,2.28125 0.0781,0.46875 0.32812,0.90625 h -1.34375 q -0.20312,-0.40625 -0.26562,-0.9375 z m -0.10938,-2.875 q -0.70312,0.28125 -2.09375,0.48438 -0.79687,0.10937 -1.125,0.26562 -0.32812,0.14063 -0.51562,0.42188 -0.17188,0.26562 -0.17188,0.59375 0,0.51562 0.39063,0.85937 0.39062,0.34375 1.14062,0.34375 0.73438,0 1.3125,-0.3125 0.59375,-0.32812 0.85938,-0.89062 0.20312,-0.4375 0.20312,-1.29688 z m 3.30737,3.8125 V 259.5531 h 1.29688 v 5.96875 l 3.04687,-3.07813 h 1.67188 l -2.90625,2.8125 3.1875,4.78125 h -1.57813 l -2.51562,-3.89062 -0.90625,0.875 v 3.01562 z m 12.53125,-2.45312 1.32813,0.17187 q -0.3125,1.17188 -1.17188,1.8125 -0.84375,0.64063 -2.17187,0.64063 -1.67188,0 -2.65625,-1.01563 -0.96875,-1.03125 -0.96875,-2.89062 0,-1.92188 0.98437,-2.96875 1,-1.0625 2.57813,-1.0625 1.51562,0 2.48437,1.03125 0.96875,1.03125 0.96875,2.92187 0,0.10938 -0.0156,0.34375 h -5.65625 q 0.0625,1.25 0.70312,1.92188 0.64063,0.65625 1.59375,0.65625 0.70313,0 1.20313,-0.35938 0.5,-0.375 0.79687,-1.20312 z m -4.23437,-2.07813 h 4.25 q -0.0937,-0.95312 -0.48438,-1.4375 -0.625,-0.75 -1.60937,-0.75 -0.875,0 -1.48438,0.59375 -0.60937,0.59375 -0.67187,1.59375 z m 7.16675,4.53125 v -7.59375 h 1.15625 v 1.14063 q 0.45312,-0.79688 0.82812,-1.04688 0.375,-0.26562 0.8125,-0.26562 0.65625,0 1.32813,0.40625 l -0.4375,1.20312 q -0.46875,-0.28125 -0.95313,-0.28125 -0.42187,0 -0.76562,0.25 -0.32813,0.25 -0.46875,0.70313 -0.21875,0.6875 -0.21875,1.5 v 3.98437 z m 14.17138,-2.45312 1.32813,0.17187 q -0.3125,1.17188 -1.17188,1.8125 -0.84375,0.64063 -2.17187,0.64063 -1.67188,0 -2.65625,-1.01563 -0.96875,-1.03125 -0.96875,-2.89062 0,-1.92188 0.98437,-2.96875 1,-1.0625 2.57813,-1.0625 1.51562,0 2.48437,1.03125 0.96875,1.03125 0.96875,2.92187 0,0.10938 -0.0156,0.34375 h -5.65625 q 0.0625,1.25 0.70312,1.92188 0.64063,0.65625 1.59375,0.65625 0.70313,0 1.20313,-0.35938 0.5,-0.375 0.79687,-1.20312 z m -4.23437,-2.07813 h 4.25 q -0.0937,-0.95312 -0.48438,-1.4375 -0.625,-0.75 -1.60937,-0.75 -0.875,0 -1.48438,0.59375 -0.60937,0.59375 -0.67187,1.59375 z m 7.16669,4.53125 v -7.59375 h 1.15625 v 1.14063 q 0.45312,-0.79688 0.82812,-1.04688 0.375,-0.26562 0.8125,-0.26562 0.65625,0 1.32813,0.40625 l -0.4375,1.20312 q -0.46875,-0.28125 -0.95313,-0.28125 -0.42187,0 -0.76562,0.25 -0.32813,0.25 -0.46875,0.70313 -0.21875,0.6875 -0.21875,1.5 v 3.98437 z m 4.88067,0 v -7.59375 h 1.15625 v 1.14063 q 0.45313,-0.79688 0.82813,-1.04688 0.375,-0.26562 0.8125,-0.26562 0.65625,0 1.32812,0.40625 l -0.4375,1.20312 q -0.46875,-0.28125 -0.95312,-0.28125 -0.42188,0 -0.76563,0.25 -0.32812,0.25 -0.46875,0.70313 -0.21875,0.6875 -0.21875,1.5 v 3.98437 z m 4.41187,-3.79687 q 0,-2.10938 1.17187,-3.125 0.98438,-0.84375 2.39063,-0.84375 1.57812,0 2.5625,1.03125 1,1.01562 1,2.82812 0,1.46875 -0.4375,2.3125 -0.4375,0.82813 -1.28125,1.29688 -0.84375,0.46875 -1.84375,0.46875 -1.59375,0 -2.57813,-1.01563 -0.98437,-1.03125 -0.98437,-2.95312 z m 1.32812,0 q 0,1.45312 0.625,2.1875 0.64063,0.71875 1.60938,0.71875 0.96875,0 1.59375,-0.71875 0.64062,-0.73438 0.64062,-2.23438 0,-1.40625 -0.64062,-2.125 -0.64063,-0.73437 -1.59375,-0.73437 -0.96875,0 -1.60938,0.71875 -0.625,0.71875 -0.625,2.1875 z m 7.29175,3.79687 v -7.59375 h 1.15625 v 1.14063 q 0.45313,-0.79688 0.82813,-1.04688 0.375,-0.26562 0.8125,-0.26562 0.65625,0 1.32812,0.40625 l -0.4375,1.20312 q -0.46875,-0.28125 -0.95312,-0.28125 -0.42188,0 -0.76563,0.25 -0.32812,0.25 -0.46875,0.70313 -0.21875,0.6875 -0.21875,1.5 v 3.98437 z m 5.74005,3.07813 h -0.92187 q 2.14062,-3.42188 2.14062,-6.875 0,-1.34375 -0.3125,-2.67188 -0.25,-1.0625 -0.67187,-2.04687 -0.28125,-0.65625 -1.15625,-2.15625 h 0.92187 q 1.34375,1.79687 1.98438,3.60937 0.54687,1.5625 0.54687,3.26563 0,1.92187 -0.73437,3.73437 -0.73438,1.79688 -1.79688,3.14063 z"
       fill-rule="nonzero"
       id="path75" />
    <path
       fill="#000000"
       fill-opacity="0"
       d="m 781.01135,218.15749 h 155.84253 v 41.88975 H 781.01135 Z"
       fill-rule="evenodd"
       id="path76" />
    <path
       fill="#ff0000"
       d="m 843.3408,244.68185 2.14062,-0.1875 q 0.15625,1.28125 0.70313,2.10937 0.5625,0.82813 1.73437,1.34375 1.17188,0.5 2.64063,0.5 1.29687,0 2.29687,-0.375 1,-0.39062 1.48438,-1.0625 0.48437,-0.6875 0.48437,-1.48437 0,-0.79688 -0.46875,-1.40625 -0.46875,-0.60938 -1.54687,-1.01563 -0.6875,-0.26562 -3.0625,-0.82812 -2.35938,-0.57813 -3.3125,-1.07813 -1.23438,-0.64062 -1.84375,-1.59375 -0.59375,-0.96875 -0.59375,-2.14062 0,-1.3125 0.73437,-2.4375 0.75,-1.125 2.15625,-1.70313 1.42188,-0.59375 3.15625,-0.59375 1.90625,0 3.35938,0.60938 1.46875,0.60937 2.25,1.8125 0.79687,1.1875 0.84375,2.70312 l -2.17188,0.17188 q -0.17187,-1.64063 -1.1875,-2.46875 -1.01562,-0.82813 -3,-0.82813 -2.0625,0 -3.01562,0.76563 -0.9375,0.75 -0.9375,1.8125 0,0.92187 0.67187,1.51562 0.65625,0.60938 3.42188,1.23438 2.78125,0.625 3.8125,1.09375 1.5,0.6875 2.20312,1.75 0.71875,1.0625 0.71875,2.4375 0,1.375 -0.78125,2.59375 -0.78125,1.20312 -2.25,1.89062 -1.46875,0.67188 -3.3125,0.67188 -2.32812,0 -3.90625,-0.67188 -1.57812,-0.6875 -2.48437,-2.04687 -0.89063,-1.375 -0.9375,-3.09375 z m 29.03906,-0.51563 2.28125,0.57813 q -0.71875,2.79687 -2.57812,4.28125 -1.85938,1.46875 -4.54688,1.46875 -2.76562,0 -4.51562,-1.125 -1.73438,-1.14063 -2.64063,-3.28125 -0.90625,-2.15625 -0.90625,-4.60938 0,-2.6875 1.01563,-4.6875 1.03125,-2 2.92187,-3.03125 1.89063,-1.03125 4.17188,-1.03125 2.57812,0 4.32812,1.3125 1.76563,1.3125 2.45313,3.6875 l -2.23438,0.53125 q -0.60937,-1.875 -1.75,-2.73437 -1.125,-0.85938 -2.84375,-0.85938 -1.98437,0 -3.3125,0.95313 -1.32812,0.95312 -1.875,2.54687 -0.53125,1.59375 -0.53125,3.29688 0,2.1875 0.625,3.82812 0.64063,1.64063 1.98438,2.45313 1.35937,0.79687 2.92187,0.79687 1.92188,0 3.23438,-1.09375 1.32812,-1.10937 1.79687,-3.28125 z"
       fill-rule="nonzero"
       id="path77" />
    <path
       fill="#ff0000"
       d="m 813.89514,273.1156 q -1.0625,-1.34375 -1.79688,-3.14063 -0.73437,-1.8125 -0.73437,-3.73437 0,-1.70313 0.54687,-3.26563 0.64063,-1.8125 1.98438,-3.60937 h 0.92187 q -0.85937,1.48437 -1.14062,2.125 -0.4375,0.98437 -0.6875,2.0625 -0.29688,1.34375 -0.29688,2.6875 0,3.45312 2.125,6.875 z m 1.91187,-5.34375 1.26562,-0.20313 q 0.10938,0.76563 0.59375,1.17188 0.5,0.40625 1.375,0.40625 0.89063,0 1.3125,-0.35938 0.4375,-0.35937 0.4375,-0.84375 0,-0.4375 -0.375,-0.6875 -0.26562,-0.17187 -1.3125,-0.4375 -1.42187,-0.35937 -1.96875,-0.60937 -0.54687,-0.26563 -0.82812,-0.73438 -0.28125,-0.46875 -0.28125,-1.01562 0,-0.51563 0.21875,-0.9375 0.23437,-0.4375 0.64062,-0.73438 0.29688,-0.21875 0.8125,-0.35937 0.53125,-0.15625 1.125,-0.15625 0.89063,0 1.5625,0.26562 0.67188,0.25 1,0.6875 0.32813,0.4375 0.4375,1.17188 l -1.25,0.17187 q -0.0937,-0.57812 -0.5,-0.90625 -0.40625,-0.34375 -1.15625,-0.34375 -0.89062,0 -1.28125,0.29688 -0.375,0.29687 -0.375,0.6875 0,0.25 0.15625,0.45312 0.15625,0.20313 0.5,0.34375 0.1875,0.0781 1.14063,0.32813 1.35937,0.35937 1.89062,0.59375 0.54688,0.23437 0.85938,0.6875 0.3125,0.4375 0.3125,1.09375 0,0.64062 -0.375,1.21875 -0.375,0.5625 -1.09375,0.875 -0.70313,0.3125 -1.59375,0.3125 -1.48438,0 -2.26563,-0.60938 -0.76562,-0.625 -0.98437,-1.82812 z m 7.84375,5.17187 v -10.5 h 1.17187 v 0.98438 q 0.42188,-0.57813 0.9375,-0.85938 0.51563,-0.29687 1.26563,-0.29687 0.96875,0 1.71875,0.5 0.75,0.5 1.125,1.42187 0.375,0.90625 0.375,1.98438 0,1.17187 -0.42188,2.10937 -0.40625,0.92188 -1.21875,1.42188 -0.79687,0.5 -1.67187,0.5 -0.64063,0 -1.15625,-0.26563 -0.51563,-0.28125 -0.84375,-0.6875 v 3.6875 z m 1.15625,-6.65625 q 0,1.45313 0.59375,2.15625 0.60937,0.70313 1.45312,0.70313 0.85938,0 1.46875,-0.71875 0.60938,-0.73438 0.60938,-2.25 0,-1.45313 -0.60938,-2.17188 -0.59375,-0.73437 -1.42187,-0.73437 -0.8125,0 -1.45313,0.78125 -0.64062,0.76562 -0.64062,2.23437 z m 12.19799,1.29688 1.32813,0.17187 q -0.3125,1.17188 -1.17188,1.8125 -0.84375,0.64063 -2.17187,0.64063 -1.67188,0 -2.65625,-1.01563 -0.96875,-1.03125 -0.96875,-2.89062 0,-1.92188 0.98437,-2.96875 1,-1.0625 2.57813,-1.0625 1.51562,0 2.48437,1.03125 0.96875,1.03125 0.96875,2.92187 0,0.10938 -0.0156,0.34375 h -5.65625 q 0.0625,1.25 0.70312,1.92188 0.64063,0.65625 1.59375,0.65625 0.70313,0 1.20313,-0.35938 0.5,-0.375 0.79687,-1.20312 z m -4.23437,-2.07813 h 4.25 q -0.0937,-0.95312 -0.48438,-1.4375 -0.625,-0.75 -1.60937,-0.75 -0.875,0 -1.48438,0.59375 -0.60937,0.59375 -0.67187,1.59375 z m 12.1355,3.59375 q -0.71875,0.60938 -1.375,0.85938 -0.65625,0.25 -1.42188,0.25 -1.25,0 -1.92187,-0.60938 -0.67188,-0.60937 -0.67188,-1.5625 0,-0.5625 0.25,-1.01562 0.25,-0.46875 0.65625,-0.75 0.42188,-0.28125 0.9375,-0.42188 0.375,-0.0937 1.14063,-0.1875 1.5625,-0.1875 2.29687,-0.45312 0.0156,-0.26563 0.0156,-0.32813 0,-0.79687 -0.375,-1.10937 -0.48438,-0.4375 -1.45313,-0.4375 -0.92187,0 -1.35937,0.32812 -0.42188,0.3125 -0.625,1.10938 l -1.26563,-0.17188 q 0.17188,-0.79687 0.5625,-1.29687 0.39063,-0.5 1.14063,-0.76563 0.75,-0.26562 1.71875,-0.26562 0.98437,0 1.59375,0.23437 0.60937,0.21875 0.89062,0.5625 0.28125,0.34375 0.40625,0.875 0.0625,0.32813 0.0625,1.1875 v 1.71875 q 0,1.79688 0.0781,2.28125 0.0781,0.46875 0.32812,0.90625 h -1.34375 q -0.20312,-0.40625 -0.26562,-0.9375 z m -0.10938,-2.875 q -0.70312,0.28125 -2.09375,0.48438 -0.79687,0.10937 -1.125,0.26562 -0.32812,0.14063 -0.51562,0.42188 -0.17188,0.26562 -0.17188,0.59375 0,0.51562 0.39063,0.85937 0.39062,0.34375 1.14062,0.34375 0.73438,0 1.3125,-0.3125 0.59375,-0.32812 0.85938,-0.89062 0.20312,-0.4375 0.20312,-1.29688 z m 3.30737,3.8125 V 259.5531 h 1.29688 v 5.96875 l 3.04687,-3.07813 h 1.67188 l -2.90625,2.8125 3.1875,4.78125 h -1.57813 l -2.51562,-3.89062 -0.90625,0.875 v 3.01562 z m 12.53125,-2.45312 1.32813,0.17187 q -0.3125,1.17188 -1.17188,1.8125 -0.84375,0.64063 -2.17187,0.64063 -1.67188,0 -2.65625,-1.01563 -0.96875,-1.03125 -0.96875,-2.89062 0,-1.92188 0.98437,-2.96875 1,-1.0625 2.57813,-1.0625 1.51562,0 2.48437,1.03125 0.96875,1.03125 0.96875,2.92187 0,0.10938 -0.0156,0.34375 h -5.65625 q 0.0625,1.25 0.70312,1.92188 0.64063,0.65625 1.59375,0.65625 0.70313,0 1.20313,-0.35938 0.5,-0.375 0.79687,-1.20312 z m -4.23437,-2.07813 h 4.25 q -0.0937,-0.95312 -0.48438,-1.4375 -0.625,-0.75 -1.60937,-0.75 -0.875,0 -1.48438,0.59375 -0.60937,0.59375 -0.67187,1.59375 z m 7.16669,4.53125 v -7.59375 h 1.15625 v 1.14063 q 0.45312,-0.79688 0.82812,-1.04688 0.375,-0.26562 0.8125,-0.26562 0.65625,0 1.32813,0.40625 l -0.4375,1.20312 q -0.46875,-0.28125 -0.95313,-0.28125 -0.42187,0 -0.76562,0.25 -0.32813,0.25 -0.46875,0.70313 -0.21875,0.6875 -0.21875,1.5 v 3.98437 z m 14.17138,-2.45312 1.32813,0.17187 q -0.3125,1.17188 -1.17188,1.8125 -0.84375,0.64063 -2.17187,0.64063 -1.67188,0 -2.65625,-1.01563 -0.96875,-1.03125 -0.96875,-2.89062 0,-1.92188 0.98437,-2.96875 1,-1.0625 2.57813,-1.0625 1.51562,0 2.48437,1.03125 0.96875,1.03125 0.96875,2.92187 0,0.10938 -0.0156,0.34375 h -5.65625 q 0.0625,1.25 0.70312,1.92188 0.64063,0.65625 1.59375,0.65625 0.70313,0 1.20313,-0.35938 0.5,-0.375 0.79687,-1.20312 z m -4.23437,-2.07813 h 4.25 q -0.0937,-0.95312 -0.48438,-1.4375 -0.625,-0.75 -1.60937,-0.75 -0.875,0 -1.48438,0.59375 -0.60937,0.59375 -0.67187,1.59375 z m 7.16675,4.53125 v -7.59375 h 1.15625 v 1.14063 q 0.45312,-0.79688 0.82812,-1.04688 0.375,-0.26562 0.8125,-0.26562 0.65625,0 1.32813,0.40625 l -0.4375,1.20312 q -0.46875,-0.28125 -0.95313,-0.28125 -0.42187,0 -0.76562,0.25 -0.32813,0.25 -0.46875,0.70313 -0.21875,0.6875 -0.21875,1.5 v 3.98437 z m 4.88061,0 v -7.59375 h 1.15625 v 1.14063 q 0.45313,-0.79688 0.82813,-1.04688 0.375,-0.26562 0.8125,-0.26562 0.65625,0 1.32812,0.40625 l -0.4375,1.20312 q -0.46875,-0.28125 -0.95312,-0.28125 -0.42188,0 -0.76563,0.25 -0.32812,0.25 -0.46875,0.70313 -0.21875,0.6875 -0.21875,1.5 v 3.98437 z m 4.41193,-3.79687 q 0,-2.10938 1.17187,-3.125 0.98438,-0.84375 2.39063,-0.84375 1.57812,0 2.5625,1.03125 1,1.01562 1,2.82812 0,1.46875 -0.4375,2.3125 -0.4375,0.82813 -1.28125,1.29688 -0.84375,0.46875 -1.84375,0.46875 -1.59375,0 -2.57813,-1.01563 -0.98437,-1.03125 -0.98437,-2.95312 z m 1.32812,0 q 0,1.45312 0.625,2.1875 0.64063,0.71875 1.60938,0.71875 0.96875,0 1.59375,-0.71875 0.64062,-0.73438 0.64062,-2.23438 0,-1.40625 -0.64062,-2.125 -0.64063,-0.73437 -1.59375,-0.73437 -0.96875,0 -1.60938,0.71875 -0.625,0.71875 -0.625,2.1875 z m 7.29175,3.79687 v -7.59375 h 1.15625 v 1.14063 q 0.45313,-0.79688 0.82813,-1.04688 0.375,-0.26562 0.8125,-0.26562 0.65625,0 1.32812,0.40625 l -0.4375,1.20312 q -0.46875,-0.28125 -0.95312,-0.28125 -0.42188,0 -0.76563,0.25 -0.32812,0.25 -0.46875,0.70313 -0.21875,0.6875 -0.21875,1.5 v 3.98437 z m 5.73999,3.07813 h -0.92187 q 2.14062,-3.42188 2.14062,-6.875 0,-1.34375 -0.3125,-2.67188 -0.25,-1.0625 -0.67187,-2.04687 -0.28125,-0.65625 -1.15625,-2.15625 h 0.92187 q 1.34375,1.79687 1.98438,3.60937 0.54687,1.5625 0.54687,3.26563 0,1.92187 -0.73437,3.73437 -0.73438,1.79688 -1.79688,3.14063 z"
       fill-rule="nonzero"
       id="path78" />
    <path
       fill="#000000"
       fill-opacity="0"
       d="M 7.5406823,134.01837 H 163.38321 v 35.2126 H 7.5406823 Z"
       fill-rule="evenodd"
       id="path79" />
    <path
       fill="#595959"
       d="m 17.900057,159.65837 v -12.40625 h 5.5 q 1.65625,0 2.515625,0.34375 0.875,0.32812 1.390625,1.17187 0.515625,0.84375 0.515625,1.875 0,1.3125 -0.859375,2.21875 -0.859375,0.90625 -2.640625,1.15625 0.65625,0.3125 1,0.60938 0.71875,0.67187 1.359375,1.65625 l 2.15625,3.375 h -2.0625 l -1.640625,-2.57813 q -0.71875,-1.125 -1.1875,-1.70312 -0.46875,-0.59375 -0.84375,-0.82813 -0.359375,-0.25 -0.734375,-0.34375 -0.28125,-0.0625 -0.921875,-0.0625 h -1.90625 v 5.51563 z m 1.640625,-6.92188 h 3.53125 q 1.125,0 1.75,-0.23437 0.640625,-0.23438 0.96875,-0.75 0.34375,-0.51563 0.34375,-1.10938 0,-0.89062 -0.640625,-1.45312 -0.640625,-0.5625 -2.03125,-0.5625 h -3.921875 z m 16.810701,4.03125 1.5625,0.1875 q -0.359375,1.39063 -1.375,2.15625 -1,0.75 -2.5625,0.75 -1.984377,0 -3.140627,-1.20312 -1.140625,-1.21875 -1.140625,-3.42188 0,-2.26562 1.15625,-3.51562 1.171877,-1.25 3.031252,-1.25 1.8125,0 2.953125,1.23437 1.140625,1.21875 1.140625,3.4375 0,0.14063 -0.01563,0.40625 h -6.703127 q 0.09375,1.48438 0.843752,2.28125 0.75,0.78125 1.875,0.78125 0.84375,0 1.4375,-0.4375 0.59375,-0.4375 0.9375,-1.40625 z m -5.000002,-2.46875 h 5.015627 q -0.109375,-1.125 -0.578125,-1.70312 -0.734375,-0.875 -1.890625,-0.875 -1.046875,0 -1.765625,0.70312 -0.703127,0.70313 -0.781252,1.875 z m 7.871462,2.67188 1.515625,-0.23438 q 0.125,0.90625 0.703125,1.39063 0.578125,0.48437 1.609375,0.48437 1.0625,0 1.5625,-0.42187 0.515625,-0.4375 0.515625,-1.01563 0,-0.51562 -0.453125,-0.8125 -0.3125,-0.20312 -1.5625,-0.51562 -1.671875,-0.42188 -2.328125,-0.71875 -0.640625,-0.3125 -0.984375,-0.85938 -0.328125,-0.54687 -0.328125,-1.20312 0,-0.60938 0.28125,-1.10938 0.28125,-0.51562 0.75,-0.85937 0.359375,-0.26563 0.96875,-0.4375 0.609375,-0.1875 1.3125,-0.1875 1.0625,0 1.859375,0.3125 0.796875,0.29687 1.171875,0.82812 0.390625,0.51563 0.53125,1.375 l -1.484375,0.20313 q -0.109375,-0.6875 -0.59375,-1.07813 -0.484375,-0.39062 -1.375,-0.39062 -1.046875,0 -1.5,0.34375 -0.4375,0.34375 -0.4375,0.8125 0,0.29687 0.171875,0.53125 0.1875,0.25 0.59375,0.40625 0.21875,0.0937 1.34375,0.39062 1.609375,0.4375 2.25,0.71875 0.640625,0.26563 1,0.79688 0.375,0.51562 0.375,1.29687 0,0.76563 -0.453125,1.4375 -0.4375,0.67188 -1.28125,1.04688 -0.828125,0.35937 -1.890625,0.35937 -1.75,0 -2.671875,-0.71875 -0.921875,-0.73437 -1.171875,-2.17187 z m 15.164062,2.6875 v -1.3125 q -1.046875,1.51562 -2.84375,1.51562 -0.796875,0 -1.5,-0.29687 -0.6875,-0.3125 -1.015625,-0.76563 -0.328125,-0.46875 -0.46875,-1.14062 -0.09375,-0.4375 -0.09375,-1.42188 v -5.5625 h 1.515625 v 4.98438 q 0,1.1875 0.09375,1.60937 0.15625,0.59375 0.609375,0.9375 0.46875,0.34375 1.15625,0.34375 0.6875,0 1.28125,-0.34375 0.609375,-0.35937 0.859375,-0.95312 0.25,-0.60938 0.25,-1.76563 v -4.8125 h 1.515625 v 8.98438 z m 3.71521,0 v -12.40625 h 1.515625 v 12.40625 z m 7.209133,-1.35938 0.21875,1.34375 q -0.640625,0.14063 -1.15625,0.14063 -0.828121,0 -1.281246,-0.26563 -0.453125,-0.26562 -0.640625,-0.6875 -0.1875,-0.4375 -0.1875,-1.79687 v -5.17188 h -1.125 v -1.1875 h 1.125 v -2.21875 l 1.515625,-0.92187 v 3.14062 h 1.531246 v 1.1875 h -1.531246 v 5.25 q 0,0.65625 0.07813,0.84375 0.07813,0.1875 0.249996,0.29688 0.1875,0.10937 0.53125,0.10937 0.25,0 0.671875,-0.0625 z m 0.876816,-1.32812 1.515625,-0.23438 q 0.125,0.90625 0.703125,1.39063 0.578125,0.48437 1.609375,0.48437 1.0625,0 1.5625,-0.42187 0.515625,-0.4375 0.515625,-1.01563 0,-0.51562 -0.453125,-0.8125 -0.3125,-0.20312 -1.5625,-0.51562 -1.671875,-0.42188 -2.328125,-0.71875 -0.640625,-0.3125 -0.984375,-0.85938 -0.328125,-0.54687 -0.328125,-1.20312 0,-0.60938 0.28125,-1.10938 0.28125,-0.51562 0.75,-0.85937 0.359375,-0.26563 0.96875,-0.4375 0.609375,-0.1875 1.3125,-0.1875 1.0625,0 1.859375,0.3125 0.796875,0.29687 1.171875,0.82812 0.390625,0.51563 0.53125,1.375 l -1.484375,0.20313 q -0.109375,-0.6875 -0.59375,-1.07813 -0.484375,-0.39062 -1.375,-0.39062 -1.046875,0 -1.5,0.34375 -0.4375,0.34375 -0.4375,0.8125 0,0.29687 0.171875,0.53125 0.1875,0.25 0.59375,0.40625 0.21875,0.0937 1.34375,0.39062 1.609375,0.4375 2.25,0.71875 0.640625,0.26563 1,0.79688 0.375,0.51562 0.375,1.29687 0,0.76563 -0.453125,1.4375 -0.4375,0.67188 -1.28125,1.04688 -0.828125,0.35937 -1.890625,0.35937 -1.75,0 -2.671875,-0.71875 -0.921875,-0.73437 -1.171875,-2.17187 z"
       fill-rule="nonzero"
       id="path80" />
    <path
       fill="#000000"
       fill-opacity="0"
       d="M 8.091864,183.33049 H 163.93439 v 30.58267 H 8.091864 Z"
       fill-rule="evenodd"
       id="path81" />
    <path
       fill="#595959"
       d="m 24.232489,204.11111 v -1.46875 h 5.25 v 4.60937 q -1.203125,0.95313 -2.5,1.45313 -1.28125,0.48437 -2.625,0.48437 -1.828125,0 -3.328125,-0.78125 -1.5,-0.79687 -2.265625,-2.26562 -0.75,-1.48438 -0.75,-3.3125 0,-1.8125 0.75,-3.375 0.765625,-1.57813 2.1875,-2.32813 1.421875,-0.76562 3.265625,-0.76562 1.359375,0 2.4375,0.4375 1.09375,0.42187 1.703125,1.20312 0.625,0.78125 0.9375,2.03125 l -1.46875,0.40625 q -0.28125,-0.9375 -0.703125,-1.48437 -0.40625,-0.54688 -1.1875,-0.85938 -0.765625,-0.32812 -1.703125,-0.32812 -1.125,0 -1.953125,0.34375 -0.8125,0.32812 -1.3125,0.89062 -0.5,0.5625 -0.78125,1.23438 -0.484375,1.14062 -0.484375,2.48437 0,1.67188 0.5625,2.78125 0.578125,1.10938 1.671875,1.65625 1.09375,0.54688 2.328125,0.54688 1.0625,0 2.078125,-0.40625 1.015625,-0.42188 1.53125,-0.89063 v -2.29687 z m 7.462753,4.85937 v -8.98437 h 1.374998 v 1.35937 q 0.515625,-0.95312 0.953125,-1.25 0.453125,-0.3125 0.984375,-0.3125 0.78125,0 1.5625,0.48438 l -0.515625,1.42187 q -0.5625,-0.32812 -1.125,-0.32812 -0.5,0 -0.890625,0.29687 -0.390625,0.29688 -0.5625,0.82813 -0.265625,0.8125 -0.265625,1.78125 v 4.70312 z m 5.223524,-4.5 q 0,-2.48437 1.390625,-3.6875 1.15625,-1 2.8125,-1 1.859375,0 3.03125,1.21875 1.1875,1.20313 1.1875,3.34375 0,1.73438 -0.53125,2.73438 -0.515625,1 -1.515625,1.54687 -0.984375,0.54688 -2.171875,0.54688 -1.875,0 -3.046875,-1.20313 -1.15625,-1.21875 -1.15625,-3.5 z m 1.5625,0 q 0,1.73438 0.75,2.59375 0.75,0.85938 1.890625,0.85938 1.140625,0 1.890625,-0.85938 0.75,-0.875 0.75,-2.64062 0,-1.65625 -0.75,-2.51563 -0.75,-0.85937 -1.890625,-0.85937 -1.140625,0 -1.890625,0.85937 -0.75,0.84375 -0.75,2.5625 z m 14.52771,4.5 v -1.3125 q -1.046875,1.51563 -2.84375,1.51563 -0.796875,0 -1.5,-0.29688 -0.6875,-0.3125 -1.015625,-0.76562 -0.328125,-0.46875 -0.46875,-1.14063 -0.09375,-0.4375 -0.09375,-1.42187 v -5.5625 h 1.515625 v 4.98437 q 0,1.1875 0.09375,1.60938 0.15625,0.59375 0.609375,0.9375 0.46875,0.34375 1.15625,0.34375 0.6875,0 1.28125,-0.34375 0.609375,-0.35938 0.859375,-0.95313 0.25,-0.60937 0.25,-1.76562 v -4.8125 h 1.515625 v 8.98437 z m 3.74646,0 v -8.98437 h 1.375 v 1.28125 q 0.984375,-1.48438 2.859375,-1.48438 0.8125,0 1.484375,0.29688 0.6875,0.28125 1.015625,0.76562 0.34375,0.46875 0.484375,1.125 0.07813,0.42188 0.07813,1.46875 v 5.53125 h -1.515629 v -5.46875 q 0,-0.92187 -0.1875,-1.375 -0.171875,-0.46875 -0.625,-0.75 -0.453125,-0.28125 -1.0625,-0.28125 -0.96875,0 -1.671875,0.625 -0.703125,0.60938 -0.703125,2.34375 v 4.90625 z m 15.465214,0 v -1.14062 q -0.84375,1.34375 -2.515625,1.34375 -1.0625,0 -1.96875,-0.59375 -0.90625,-0.59375 -1.40625,-1.65625 -0.484375,-1.0625 -0.484375,-2.4375 0,-1.34375 0.4375,-2.4375 0.453125,-1.09375 1.34375,-1.67188 0.90625,-0.59375 2.015625,-0.59375 0.8125,0 1.4375,0.34375 0.640625,0.34375 1.046875,0.89063 v -4.45313 h 1.515625 v 12.40625 z m -4.8125,-4.48437 q 0,1.71875 0.71875,2.57812 0.734375,0.85938 1.734375,0.85938 0.984375,0 1.6875,-0.8125 0.703125,-0.82813 0.703125,-2.5 0,-1.84375 -0.71875,-2.70313 -0.703125,-0.85937 -1.75,-0.85937 -1.015625,0 -1.703125,0.82812 -0.671875,0.82813 -0.671875,2.60938 z m 16.481995,4.48437 v -10.9375 h -4.09375 v -1.46875 h 9.828125 v 1.46875 h -4.09375 v 10.9375 z m 6.566483,0 v -8.98437 h 1.375 v 1.35937 q 0.515625,-0.95312 0.953125,-1.25 0.453125,-0.3125 0.984375,-0.3125 0.78125,0 1.5625,0.48438 l -0.515625,1.42187 q -0.5625,-0.32812 -1.125,-0.32812 -0.5,0 -0.890625,0.29687 -0.390625,0.29688 -0.5625,0.82813 -0.265625,0.8125 -0.265625,1.78125 v 4.70312 z m 11.676652,0 v -1.3125 q -1.04688,1.51563 -2.843751,1.51563 -0.796875,0 -1.5,-0.29688 -0.6875,-0.3125 -1.015625,-0.76562 -0.328125,-0.46875 -0.46875,-1.14063 -0.09375,-0.4375 -0.09375,-1.42187 v -5.5625 h 1.515625 v 4.98437 q 0,1.1875 0.09375,1.60938 0.15625,0.59375 0.609375,0.9375 0.46875,0.34375 1.15625,0.34375 0.687496,0 1.281246,-0.34375 0.60938,-0.35938 0.85938,-0.95313 0.25,-0.60937 0.25,-1.76562 v -4.8125 h 1.51562 v 8.98437 z m 7.07458,-1.35937 0.21875,1.34375 q -0.64062,0.14062 -1.15625,0.14062 -0.82812,0 -1.28125,-0.26562 -0.45312,-0.26563 -0.64062,-0.6875 -0.1875,-0.4375 -0.1875,-1.79688 v -5.17187 h -1.125 v -1.1875 h 1.125 v -2.21875 l 1.51562,-0.92188 v 3.14063 h 1.53125 v 1.1875 h -1.53125 v 5.25 q 0,0.65625 0.0781,0.84375 0.0781,0.1875 0.25,0.29687 0.1875,0.10938 0.53125,0.10938 0.25,0 0.67187,-0.0625 z m 1.48619,1.35937 v -12.40625 h 1.53125 v 4.45313 q 1.0625,-1.23438 2.6875,-1.23438 1,0 1.73438,0.39063 0.73437,0.39062 1.04687,1.09375 0.32813,0.6875 0.32813,2.01562 v 5.6875 h -1.53125 v -5.6875 q 0,-1.15625 -0.5,-1.67187 -0.48438,-0.51563 -1.39063,-0.51563 -0.6875,0 -1.28125,0.35938 -0.59375,0.34375 -0.84375,0.95312 -0.25,0.59375 -0.25,1.64063 v 4.92187 z"
       fill-rule="nonzero"
       id="path82" />
  </g>
</svg>
